<svg width="78" height="53" viewBox="0 0 78 53" fill="none" xmlns="http://www.w3.org/2000/svg">
<path opacity="0.3" d="M35.728 45.6696C32.128 50.4216 27.112 52.7976 20.68 52.7976C14.248 52.7976 9.208 50.4216 5.56 45.6696C1.96 40.8696 0.16 34.5096 0.16 26.5895C0.16 18.6695 1.96 12.3335 5.56 7.58155C9.208 2.78155 14.248 0.381547 20.68 0.381547C27.112 0.381547 32.128 2.78155 35.728 7.58155C39.376 12.3335 41.2 18.6695 41.2 26.5895C41.2 34.5096 39.376 40.8696 35.728 45.6696ZM11.68 26.5895C11.68 36.5735 14.68 41.5656 20.68 41.5656C26.68 41.5656 29.68 36.5735 29.68 26.5895C29.68 16.6055 26.68 11.6135 20.68 11.6135C14.68 11.6135 11.68 16.6055 11.68 26.5895ZM43.5293 51.7896V43.4376L60.4493 25.8695C63.8573 22.3655 65.5613 19.3895 65.5613 16.9415C65.5613 15.3575 65.0813 14.0855 64.1213 13.1256C63.1613 12.1175 61.8413 11.6135 60.1613 11.6135C56.8013 11.6135 54.3293 13.4375 52.7453 17.0855L43.0253 11.3975C44.5613 7.79755 46.8653 5.06155 49.9373 3.18955C53.0093 1.31755 56.3693 0.381547 60.0173 0.381547C64.7213 0.381547 68.7293 1.84555 72.0413 4.77355C75.4013 7.65355 77.0813 11.5415 77.0813 16.4375C77.0813 21.7655 74.4653 27.0455 69.2333 32.2775L60.8813 40.7015H77.8013V51.7896H43.5293Z" fill="#293E65"/>
</svg>
