<svg width="79" height="53" viewBox="0 0 79 53" fill="none" xmlns="http://www.w3.org/2000/svg">
<path opacity="0.3" d="M35.728 45.6696C32.128 50.4216 27.112 52.7976 20.68 52.7976C14.248 52.7976 9.208 50.4216 5.56 45.6696C1.96 40.8696 0.16 34.5096 0.16 26.5895C0.16 18.6695 1.96 12.3335 5.56 7.58155C9.208 2.78155 14.248 0.381547 20.68 0.381547C27.112 0.381547 32.128 2.78155 35.728 7.58155C39.376 12.3335 41.2 18.6695 41.2 26.5895C41.2 34.5096 39.376 40.8696 35.728 45.6696ZM11.68 26.5895C11.68 36.5735 14.68 41.5656 20.68 41.5656C26.68 41.5656 29.68 36.5735 29.68 26.5895C29.68 16.6055 26.68 11.6135 20.68 11.6135C14.68 11.6135 11.68 16.6055 11.68 26.5895ZM67.8839 21.8376C71.0999 22.9416 73.6919 24.7415 75.6599 27.2375C77.6279 29.6855 78.6119 32.5895 78.6119 35.9495C78.6119 41.2296 76.8359 45.3576 73.2839 48.3336C69.7319 51.3096 65.3879 52.7976 60.2519 52.7976C56.2679 52.7976 52.6919 51.8856 49.5239 50.0616C46.4039 48.2376 44.0999 45.5496 42.6119 41.9976L52.5479 36.2376C53.7959 39.7896 56.3639 41.5656 60.2519 41.5656C62.5079 41.5656 64.2119 41.0376 65.3639 39.9816C66.5159 38.9256 67.0919 37.5816 67.0919 35.9495C67.0919 34.3176 66.5159 32.9735 65.3639 31.9175C64.2119 30.8615 62.5079 30.3336 60.2519 30.3336H57.8759L53.4839 23.7815L62.6279 12.1895H44.1959V1.38955H76.5959V10.7495L67.8839 21.8376Z" fill="#293E65"/>
</svg>
