<svg width="85" height="53" viewBox="0 0 85 53" fill="none" xmlns="http://www.w3.org/2000/svg">
<path opacity="0.3" d="M35.728 45.6695C32.128 50.4215 27.112 52.7975 20.68 52.7975C14.248 52.7975 9.208 50.4215 5.56 45.6695C1.96 40.8695 0.16 34.5095 0.16 26.5895C0.16 18.6695 1.96 12.3335 5.56 7.58152C9.208 2.78152 14.248 0.381517 20.68 0.381517C27.112 0.381517 32.128 2.78152 35.728 7.58152C39.376 12.3335 41.2 18.6695 41.2 26.5895C41.2 34.5095 39.376 40.8695 35.728 45.6695ZM11.68 26.5895C11.68 36.5735 14.68 41.5655 20.68 41.5655C26.68 41.5655 29.68 36.5735 29.68 26.5895C29.68 16.6055 26.68 11.6135 20.68 11.6135C14.68 11.6135 11.68 16.6055 11.68 26.5895ZM84.3916 33.0695V43.7255H79.3516V51.7895H67.6876V43.7255H44.7916V33.0695L60.8476 1.38952H73.2316L57.1756 33.0695H67.6876V22.2695H79.3516V33.0695H84.3916Z" fill="#293E65"/>
</svg>
