<svg width="81" height="53" viewBox="0 0 81 53" fill="none" xmlns="http://www.w3.org/2000/svg">
<path opacity="0.3" d="M35.728 45.6695C32.128 50.4215 27.112 52.7975 20.68 52.7975C14.248 52.7975 9.208 50.4215 5.56 45.6695C1.96 40.8695 0.16 34.5095 0.16 26.5895C0.16 18.6695 1.96 12.3335 5.56 7.58152C9.208 2.78152 14.248 0.381517 20.68 0.381517C27.112 0.381517 32.128 2.78152 35.728 7.58152C39.376 12.3335 41.2 18.6695 41.2 26.5895C41.2 34.5095 39.376 40.8695 35.728 45.6695ZM11.68 26.5895C11.68 36.5735 14.68 41.5655 20.68 41.5655C26.68 41.5655 29.68 36.5735 29.68 26.5895C29.68 16.6055 26.68 11.6135 20.68 11.6135C14.68 11.6135 11.68 16.6055 11.68 26.5895ZM63.1684 19.1015C68.1124 19.1015 72.2164 20.5895 75.4804 23.5655C78.7924 26.4935 80.4484 30.6215 80.4484 35.9495C80.4484 41.2295 78.6724 45.3575 75.1204 48.3335C71.5684 51.3095 67.2244 52.7975 62.0884 52.7975C57.9124 52.7975 54.2404 51.9095 51.0724 50.1335C47.9044 48.3095 45.5764 45.5975 44.0884 41.9975L54.0244 36.2375C55.2724 39.7895 57.9604 41.5655 62.0884 41.5655C64.3444 41.5655 66.0484 41.0375 67.2004 39.9815C68.3524 38.9255 68.9284 37.5815 68.9284 35.9495C68.9284 34.3175 68.3764 32.9735 67.2724 31.9175C66.1684 30.8615 64.5604 30.3335 62.4484 30.3335H46.6804L48.7684 1.38952H77.9284V12.1895H59.5684L59.0644 19.1015H63.1684Z" fill="#293E65"/>
</svg>
