<svg width="66" height="53" viewBox="0 0 66 53" fill="none" xmlns="http://www.w3.org/2000/svg">
<path opacity="0.3" d="M35.728 45.6696C32.128 50.4216 27.112 52.7976 20.68 52.7976C14.248 52.7976 9.208 50.4216 5.56 45.6696C1.96 40.8696 0.16 34.5096 0.16 26.5895C0.16 18.6695 1.96 12.3335 5.56 7.58155C9.208 2.78155 14.248 0.381547 20.68 0.381547C27.112 0.381547 32.128 2.78155 35.728 7.58155C39.376 12.3335 41.2 18.6695 41.2 26.5895C41.2 34.5096 39.376 40.8696 35.728 45.6696ZM11.68 26.5895C11.68 36.5735 14.68 41.5656 20.68 41.5656C26.68 41.5656 29.68 36.5735 29.68 26.5895C29.68 16.6055 26.68 11.6135 20.68 11.6135C14.68 11.6135 11.68 16.6055 11.68 26.5895ZM55.8413 1.38955H65.9213V51.7896H54.4013V13.5575L45.4733 16.0056L42.6653 6.14155L55.8413 1.38955Z" fill="#293E65"/>
</svg>
