<svg width="17" height="19" viewBox="0 0 17 19" fill="none" xmlns="http://www.w3.org/2000/svg">
<path d="M8.04678 10.2379C8.06654 10.2379 8.0863 10.2379 8.11001 10.2379C8.11791 10.2379 8.12581 10.2379 8.13372 10.2379C8.14557 10.2379 8.16138 10.2379 8.17324 10.2379C9.33109 10.2182 10.2677 9.81297 10.9592 9.03784C12.4806 7.33021 12.2277 4.40285 12.2001 4.12349C12.1013 2.02633 11.1054 1.023 10.2835 0.554783C9.67094 0.204601 8.95568 0.0157385 8.15743 0H8.12977C8.12582 0 8.11791 0 8.11396 0H8.09025C7.65161 0 6.79013 0.0708233 5.96422 0.539044C5.13435 1.00727 4.12271 2.0106 4.02392 4.12349C3.99625 4.40285 3.74334 7.33021 5.26476 9.03784C5.95236 9.81297 6.88892 10.2182 8.04678 10.2379ZM5.07596 4.25269C5.07785 4.23163 5.08298 4.21152 5.08298 4.19038C5.21339 1.36925 7.22482 1.06628 8.0863 1.06628H8.10211C8.11001 1.06628 8.12186 1.06628 8.13372 1.06628C9.20069 1.08989 11.0145 1.5227 11.137 4.19038C11.137 4.21157 11.1422 4.23174 11.1441 4.25284C11.172 4.55675 11.3484 7.00698 10.1649 8.33354C9.66699 8.89226 9.0031 9.16769 8.12977 9.17556C8.12186 9.17556 8.11791 9.17556 8.11001 9.17556C8.10211 9.17556 8.09815 9.17556 8.09025 9.17556C7.22087 9.16769 6.55303 8.89226 6.05906 8.33354C4.87981 7.01495 5.0488 4.5562 5.07596 4.25269Z" fill="white"/>
<path d="M16.2309 15.0939C16.2309 15.09 16.2309 15.0861 16.2309 15.0821C16.2309 15.0507 16.2269 15.0192 16.2269 14.9838C16.2032 14.2047 16.1518 12.3831 14.4368 11.8008C14.4249 11.7968 14.4091 11.7929 14.3973 11.789C12.615 11.3365 11.1331 10.3135 11.1173 10.3017C10.8763 10.1325 10.5443 10.1916 10.3744 10.4316C10.2045 10.6716 10.2637 11.0021 10.5048 11.1713C10.572 11.2185 12.1448 12.3083 14.1127 12.8119C15.0335 13.1385 15.1362 14.1182 15.1639 15.0153C15.1639 15.0507 15.1639 15.0821 15.1678 15.1136C15.1765 15.8885 14.7015 16.5597 13.9838 16.8519C12.7816 17.3414 10.764 17.9425 8.11794 17.9425C5.47917 17.9425 3.45539 17.3378 2.24881 16.8468C1.53119 16.5548 1.0468 15.8842 1.06409 15.1097C1.06409 15.0782 1.06804 15.0467 1.06804 15.0113C1.09571 14.1143 1.19845 13.1346 2.11921 12.808C4.08717 12.3044 5.65996 11.2106 5.72714 11.1673C5.9682 10.9981 6.02747 10.6676 5.85755 10.4276C5.68762 10.1876 5.35568 10.1286 5.11462 10.2978C5.09882 10.3096 3.62482 11.3326 1.83468 11.785C1.81887 11.789 1.80702 11.7929 1.79516 11.7968C0.0801103 12.3831 0.0287378 14.2048 0.00502735 14.9798C0.00502735 15.0153 0.00502726 15.0467 0.00107552 15.0782C0.00107552 15.0821 0.00107552 15.0861 0.00107552 15.09C-0.00287621 15.2946 -0.00682787 16.3451 0.202614 16.8723C0.242132 16.9746 0.313263 17.0612 0.408105 17.1202C0.526657 17.1989 3.36796 19.0009 8.12189 19.0009C12.8758 19.0009 15.7171 17.195 15.8357 17.1202C15.9266 17.0612 16.0017 16.9746 16.0412 16.8723C16.2388 16.349 16.2348 15.2985 16.2309 15.0939Z" fill="white"/>
</svg>
