<svg width="100" height="100" viewBox="0 0 100 100" fill="none" xmlns="http://www.w3.org/2000/svg">
<g clip-path="url(#clip0)">
<path d="M100.003 50.5115C100.287 22.8987 78.1315 0.283639 50.5168 -0.000712133C22.9021 -0.285063 0.28537 21.869 0.000998484 49.4818C-0.283373 77.0946 21.8723 99.7096 49.487 99.994C77.1017 100.278 99.7184 78.1243 100.003 50.5115Z" fill="#15B0BF"/>
<path d="M99.8592 53.6041L68.0887 21.8217V21.7513H37.8177L26.9483 32.6059V77.9741H27.1031L49.1095 99.9577C49.4051 99.9577 49.7008 99.9577 50.0035 99.9577C62.6329 99.959 74.7946 95.1795 84.0436 86.5802C93.2926 77.9809 98.9431 66.1994 99.8592 53.6041Z" fill="#1695A4"/>
<path d="M26.9483 77.9741V47.7544V32.6059L37.8036 21.7513H68.0887V32.9649V47.7544V77.9741H26.9483Z" fill="white"/>
<path d="M37.8036 32.6059H26.9483L37.8036 21.7513V32.6059Z" fill="#FEC00F"/>
<path d="M26.9483 32.606H37.8036L26.9483 43.4605V32.606Z" fill="#D1ECFB"/>
<path d="M36.9447 65.8805V58.792C35.6683 58.8773 34.4434 59.3285 33.4166 60.0915C32.3898 60.8546 31.6045 61.8972 31.1547 63.0947C30.7048 64.2922 30.6094 65.594 30.8799 66.8443C31.1504 68.0946 31.7753 69.2405 32.6799 70.1451C33.5845 71.0496 34.7306 71.6745 35.9809 71.9449C37.2313 72.2154 38.5332 72.12 39.7308 71.6702C40.9284 71.2204 41.9711 70.4352 42.7342 69.4084C43.4973 68.3817 43.9484 67.1569 44.0338 65.8805H36.9447Z" fill="#2C5871"/>
<path d="M43.71 64.2053C43.7109 63.5499 43.5824 62.9009 43.3318 62.2953C43.0812 61.6898 42.7135 61.1397 42.2497 60.6766C41.786 60.2135 41.2353 59.8466 40.6294 59.5969C40.0234 59.3472 39.3741 59.2196 38.7188 59.2215V64.2053H43.71Z" fill="#F99B1C"/>
<path d="M40.1971 45.3048C40.0649 45.709 39.849 46.0807 39.5635 46.3959L41.7247 49.4157C42.8409 48.4573 43.6063 47.1546 43.9 45.7131L40.1971 45.3048Z" fill="#A6DAE9"/>
<path d="M38.0148 41.4753C38.6341 41.6053 39.1953 41.9305 39.616 42.4031C40.0367 42.8757 40.2947 43.4709 40.352 44.101L44.0549 44.5093C44.0549 44.467 44.0549 44.4248 44.0549 44.3825C44.0548 42.7251 43.4352 41.1274 42.3177 39.9032C41.2002 38.679 39.6655 37.9166 38.0148 37.7656V41.4753Z" fill="#F99B1C"/>
<path d="M35.1989 42.3904C35.614 41.9221 36.1698 41.601 36.7828 41.4753V37.7656C35.8349 37.851 34.9165 38.1398 34.0904 38.6123C33.2643 39.0849 32.5498 39.7301 31.9958 40.5039L35.1989 42.3904Z" fill="#15B0BF"/>
<path d="M38.578 47.0998C38.2017 47.2696 37.794 47.3583 37.3812 47.3603C36.5914 47.3603 35.834 47.0465 35.2756 46.4881C34.7171 45.9297 34.4034 45.1724 34.4034 44.3826C34.4081 44.0582 34.4676 43.7369 34.5794 43.4323L31.3692 41.5317C30.7562 42.8162 30.5718 44.2635 30.8431 45.6605C31.1145 47.0576 31.8272 48.3307 32.8764 49.2924C33.9256 50.254 35.2559 50.8534 36.6714 51.0024C38.0869 51.1513 39.5128 50.8419 40.7392 50.1197L38.578 47.0998Z" fill="#2C5871"/>
<path d="M63.2031 37.7656H47.1665V39.4128H63.2031V37.7656Z" fill="#15B0BF"/>
<path d="M63.2031 42.9326H47.1665V44.5798H63.2031V42.9326Z" fill="#A6DAE9"/>
<path d="M63.2031 48.1064H47.1665V49.7536H63.2031V48.1064Z" fill="#A6DAE9"/>
<path d="M58.3245 58.792H47.1665V60.4392H58.3245V58.792Z" fill="#15B0BF"/>
<path d="M63.2031 63.9658H47.1665V65.613H63.2031V63.9658Z" fill="#A6DAE9"/>
<path d="M63.2031 69.1328H47.1665V70.78H63.2031V69.1328Z" fill="#A6DAE9"/>
</g>
<defs>
<clipPath id="clip0">
<rect width="100" height="100" fill="white"/>
</clipPath>
</defs>
</svg>
