<svg width="119" height="119" viewBox="0 0 119 119" fill="none" xmlns="http://www.w3.org/2000/svg">
<path d="M70.7129 108.083C97.3811 102.053 114.112 75.5463 108.083 48.878C102.053 22.2098 75.5463 5.47873 48.878 11.5082C22.2097 17.5378 5.47872 44.0446 11.5082 70.7129C17.5378 97.3811 44.0446 114.112 70.7129 108.083Z" fill="#2C5871"/>
<path d="M78.7633 39.7593C78.6002 39.3403 78.312 38.9817 77.9379 38.7323C77.5638 38.4829 77.1219 38.3548 76.6724 38.3654H34.408C34.1178 38.3654 33.8305 38.4225 33.5624 38.5335C33.2944 38.6446 33.0508 38.8073 32.8457 39.0125C32.6405 39.2176 32.4778 39.4612 32.3667 39.7293C32.2557 39.9973 32.1985 40.2846 32.1985 40.5748V75.5837C32.2003 75.9894 32.3138 76.3867 32.5265 76.7322C32.7392 77.0777 33.0429 77.3579 33.4043 77.5422L64.9005 109.038C75.4372 107.942 85.3447 103.496 93.1677 96.3532C100.991 89.2102 106.317 79.7466 108.364 69.3528L78.7633 39.7593Z" fill="#0E303F"/>
<path d="M76.7003 38.5813H34.408C33.3225 38.5813 32.4425 39.4613 32.4425 40.5468V75.5836C32.4425 76.6691 33.3225 77.5491 34.408 77.5491H76.7003C77.7858 77.5491 78.6657 76.6691 78.6657 75.5836V40.5468C78.6657 39.4613 77.7858 38.5813 76.7003 38.5813Z" fill="white"/>
<path d="M76.7003 38.8255C77.1569 38.8255 77.5947 39.0069 77.9176 39.3298C78.2404 39.6526 78.4218 40.0905 78.4218 40.5471V75.5839C78.4218 76.0405 78.2404 76.4783 77.9176 76.8012C77.5947 77.124 77.1569 77.3054 76.7003 77.3054H34.408C33.9526 77.3036 33.5165 77.1214 33.1952 76.7987C32.8738 76.4761 32.6934 76.0393 32.6934 75.5839V40.5471C32.6934 40.0917 32.8738 39.6549 33.1952 39.3322C33.5165 39.0096 33.9526 38.8274 34.408 38.8255H76.7003ZM76.7003 38.3377H34.408C33.822 38.3377 33.26 38.5704 32.8457 38.9848C32.4313 39.3991 32.1985 39.9611 32.1985 40.5471V75.5839C32.1985 76.1699 32.4313 76.7318 32.8457 77.1462C33.26 77.5605 33.822 77.7933 34.408 77.7933H76.7003C76.991 77.7942 77.2791 77.7377 77.5479 77.6271C77.8168 77.5165 78.0612 77.3539 78.2671 77.1486C78.473 76.9434 78.6363 76.6995 78.7478 76.431C78.8593 76.1625 78.9167 75.8746 78.9167 75.5839V40.5471C78.9167 40.2563 78.8593 39.9685 78.7478 39.6999C78.6363 39.4314 78.473 39.1876 78.2671 38.9823C78.0612 38.7771 77.8168 38.6145 77.5479 38.5038C77.2791 38.3932 76.991 38.3367 76.7003 38.3377Z" fill="#8FC4D7"/>
<path d="M76.7003 38.3376H34.408C34.1178 38.3376 33.8305 38.3948 33.5624 38.5058C33.2944 38.6169 33.0508 38.7796 32.8457 38.9848C32.6405 39.1899 32.4778 39.4335 32.3667 39.7015C32.2557 39.9696 32.1985 40.2569 32.1985 40.5471V44.7289H78.8958V40.5471C78.8958 39.9635 78.6649 39.4036 78.2536 38.9897C77.8422 38.5757 77.2838 38.3413 76.7003 38.3376Z" fill="#8FC4D7"/>
<path d="M36.7219 41.6062C36.7219 41.8502 36.6495 42.0887 36.514 42.2916C36.3784 42.4945 36.1857 42.6526 35.9603 42.7459C35.7349 42.8393 35.4868 42.8637 35.2475 42.8161C35.0082 42.7685 34.7884 42.651 34.6159 42.4785C34.4434 42.306 34.3259 42.0862 34.2783 41.8469C34.2307 41.6076 34.2551 41.3595 34.3485 41.1341C34.4419 40.9087 34.6 40.716 34.8028 40.5805C35.0057 40.4449 35.2442 40.3726 35.4882 40.3726C35.6502 40.3726 35.8106 40.4045 35.9603 40.4665C36.11 40.5285 36.246 40.6193 36.3605 40.7339C36.4751 40.8484 36.566 40.9844 36.628 41.1341C36.6899 41.2838 36.7219 41.4442 36.7219 41.6062Z" fill="white"/>
<path d="M40.1719 41.6062C40.1719 41.8502 40.0995 42.0887 39.964 42.2916C39.8284 42.4945 39.6358 42.6526 39.4103 42.7459C39.1849 42.8393 38.9369 42.8637 38.6976 42.8161C38.4583 42.7685 38.2384 42.651 38.0659 42.4785C37.8934 42.306 37.7759 42.0862 37.7283 41.8469C37.6807 41.6076 37.7051 41.3595 37.7985 41.1341C37.8919 40.9087 38.05 40.716 38.2529 40.5805C38.4557 40.4449 38.6942 40.3726 38.9382 40.3726C39.1002 40.3726 39.2607 40.4045 39.4103 40.4665C39.56 40.5285 39.696 40.6193 39.8106 40.7339C39.9251 40.8484 40.016 40.9844 40.078 41.1341C40.14 41.2838 40.1719 41.4442 40.1719 41.6062Z" fill="white"/>
<path d="M43.6289 41.6062C43.6289 41.8502 43.5566 42.0887 43.421 42.2916C43.2854 42.4945 43.0928 42.6526 42.8674 42.7459C42.6419 42.8393 42.3939 42.8637 42.1546 42.8161C41.9153 42.7685 41.6955 42.651 41.5229 42.4785C41.3504 42.306 41.2329 42.0862 41.1853 41.8469C41.1377 41.6076 41.1622 41.3595 41.2555 41.1341C41.3489 40.9087 41.507 40.716 41.7099 40.5805C41.9128 40.4449 42.1513 40.3726 42.3953 40.3726C42.5573 40.3726 42.7177 40.4045 42.8674 40.4665C43.017 40.5285 43.153 40.6193 43.2676 40.7339C43.3821 40.8484 43.473 40.9844 43.535 41.1341C43.597 41.2838 43.6289 41.4442 43.6289 41.6062Z" fill="white"/>
<path d="M75.6897 40.4912H47.0789V42.7076H75.6897V40.4912Z" fill="white"/>
<path d="M44.8556 48.144H34.7076V49.0571H44.8556V48.144Z" fill="#8FC4D7"/>
<path d="M45.6013 67.5129H34.7076V68.426H45.6013V67.5129Z" fill="#8FC4D7"/>
<path d="M75.2784 70.1821H34.7076V71.0952H75.2784V70.1821Z" fill="#A6DAE9"/>
<path d="M75.2784 72.8586H34.7076V73.7786H75.2784V72.8586Z" fill="#A6DAE9"/>
<path d="M75.4875 48.144H69.0335V49.0571H75.4875V48.144Z" fill="#A6DAE9"/>
<path d="M67.3399 48.144H60.8929V49.0571H67.3399V48.144Z" fill="#A6DAE9"/>
<path d="M59.1993 48.144H52.7523V49.0571H59.1993V48.144Z" fill="#A6DAE9"/>
<path d="M75.4806 52.5349H34.7076V64.7319H75.4806V52.5349Z" fill="#15B0BF"/>
<path d="M41.6077 64.7319H75.4875V52.5349H61.7293L41.6077 64.7319Z" fill="#1695A4"/>
<path d="M87.0085 65.7774H84.8618C84.7109 65.0257 84.5012 64.2869 84.2346 63.568L86.0258 62.5644C86.2324 62.4421 86.383 62.244 86.4455 62.0122C86.508 61.7804 86.4775 61.5333 86.3603 61.3238L84.5482 58.1874C84.4274 57.9811 84.2299 57.8309 83.9988 57.7695C83.7678 57.7082 83.5218 57.7406 83.3146 57.8598L81.4397 58.9401C80.9317 58.3681 80.3819 57.8347 79.7948 57.3441L80.8403 55.5319C80.9589 55.3238 80.9903 55.0772 80.9276 54.8461C80.8649 54.6149 80.7133 54.4179 80.5057 54.2983L77.3763 52.4862C77.1672 52.3672 76.9195 52.3356 76.6872 52.3983C76.4549 52.4609 76.2567 52.6127 76.1357 52.8207L75.0554 54.6956C74.3309 54.447 73.5874 54.2582 72.8321 54.131V52.0401C72.8321 51.7998 72.7366 51.5693 72.5667 51.3994C72.3968 51.2295 72.1663 51.134 71.926 51.134H68.3087C68.0684 51.134 67.838 51.2295 67.668 51.3994C67.4981 51.5693 67.4027 51.7998 67.4027 52.0401V54.2007C66.6509 54.3516 65.9121 54.5614 65.1932 54.828L64.1548 53.0159C64.0949 52.9128 64.0153 52.8225 63.9206 52.7502C63.8258 52.6779 63.7177 52.6251 63.6024 52.5946C63.4872 52.5642 63.3671 52.5568 63.249 52.5729C63.1309 52.589 63.0171 52.6282 62.9141 52.6883L59.7708 54.4656C59.6679 54.5247 59.5778 54.6037 59.5056 54.6978C59.4334 54.792 59.3806 54.8995 59.3501 55.0142C59.3197 55.1289 59.3122 55.2484 59.3282 55.366C59.3442 55.4836 59.3833 55.5968 59.4432 55.6992L60.5235 57.5741C59.9516 58.0797 59.4181 58.6272 58.9275 59.212L57.1293 58.1735C56.9201 58.0545 56.6725 58.0229 56.4402 58.0856C56.2078 58.1482 56.0096 58.3 55.8887 58.508L54.0765 61.6374C54.0159 61.74 53.9765 61.8537 53.9605 61.9717C53.9445 62.0898 53.9523 62.2098 53.9835 62.3248C54.0147 62.4398 54.0686 62.5474 54.142 62.6412C54.2155 62.735 54.3069 62.8132 54.4111 62.8711L56.2859 63.9583C56.0397 64.6806 55.8532 65.4219 55.7284 66.1747H53.6374C53.3965 66.1766 53.166 66.2736 52.9963 66.4446C52.8266 66.6156 52.7314 66.8468 52.7314 67.0877V70.705C52.7295 70.8246 52.7514 70.9434 52.7956 71.0544C52.8399 71.1655 52.9057 71.2668 52.9893 71.3523C53.0729 71.4378 53.1726 71.5059 53.2826 71.5528C53.3927 71.5996 53.5109 71.6241 53.6305 71.625H55.7911C55.9409 72.3793 56.1507 73.1205 56.4184 73.8414L54.6062 74.8799C54.3994 75.002 54.2491 75.2008 54.1878 75.433C54.1265 75.6652 54.1591 75.9122 54.2786 76.1205L56.0838 79.2499C56.2048 79.4579 56.403 79.6097 56.6353 79.6724C56.8676 79.735 57.1153 79.7034 57.3244 79.5845L59.1993 78.4972C59.7054 79.0731 60.2554 79.6091 60.8441 80.1002L59.7987 81.9124C59.7387 82.0148 59.6996 82.128 59.6837 82.2456C59.6677 82.3632 59.6751 82.4827 59.7056 82.5974C59.736 82.7121 59.7889 82.8196 59.8611 82.9138C59.9333 83.0079 60.0234 83.0868 60.1263 83.146L63.2626 84.9581C63.4707 85.0768 63.7173 85.1082 63.9485 85.0455C64.1797 84.9828 64.3766 84.8311 64.4963 84.6236L65.5836 82.7487C66.3088 82.9948 67.0522 83.1836 67.8069 83.3133V85.4042C67.8069 85.6433 67.9014 85.8727 68.0698 86.0424C68.2382 86.2122 68.4669 86.3084 68.706 86.3103H72.3163C72.5566 86.3103 72.7871 86.2148 72.957 86.0449C73.1269 85.875 73.2224 85.6445 73.2224 85.4042V83.2436C73.9728 83.0901 74.7111 82.8828 75.4318 82.6233L76.4772 84.4215C76.5351 84.5256 76.6133 84.6171 76.7071 84.6905C76.8009 84.7639 76.9085 84.8178 77.0235 84.849C77.1385 84.8802 77.2585 84.888 77.3766 84.8721C77.4947 84.8561 77.6083 84.8166 77.7109 84.756L80.8473 82.9439C81.0541 82.8217 81.2044 82.623 81.2657 82.3908C81.327 82.1586 81.2944 81.9116 81.1748 81.7033L80.0876 79.8354C80.6652 79.331 81.2013 78.7809 81.6906 78.1905L83.5027 79.236C83.7108 79.3546 83.9574 79.386 84.1886 79.3233C84.4198 79.2606 84.6167 79.1089 84.7364 78.9014L86.5485 75.772C86.6671 75.5639 86.6985 75.3173 86.6358 75.0862C86.5731 74.855 86.4215 74.658 86.214 74.5384L84.3391 73.4511C84.5844 72.7257 84.7731 71.9823 84.9036 71.2278H86.9946C87.2349 71.2278 87.4653 71.1323 87.6353 70.9624C87.8052 70.7925 87.9006 70.562 87.9006 70.3217V66.6835C87.9007 66.4456 87.8071 66.2172 87.6402 66.0477C87.4733 65.8782 87.2464 65.7811 87.0085 65.7774ZM70.2812 75.9114C68.8546 75.9045 67.462 75.4752 66.2791 74.6776C65.0963 73.88 64.1762 72.7499 63.6351 71.4299C63.0939 70.11 62.9558 68.6592 63.2384 67.2609C63.5209 65.8625 64.2113 64.5792 65.2225 63.5728C66.2337 62.5665 67.5204 61.8822 68.9201 61.6064C70.3198 61.3306 71.7698 61.4757 73.0872 62.0232C74.4046 62.5707 75.5302 63.4962 76.3221 64.6829C77.114 65.8695 77.5366 67.2642 77.5366 68.6908C77.5376 69.6393 77.3514 70.5786 76.9889 71.4551C76.6263 72.3316 76.0945 73.1279 75.4238 73.7986C74.7531 74.4693 73.9568 75.0011 73.0803 75.3637C72.2038 75.7262 71.2645 75.9123 70.316 75.9114H70.2812Z" fill="#F99B1C"/>
<path d="M70.0024 78.072C67.5595 78.0054 65.239 76.9881 63.5347 75.2367C61.8304 73.4853 60.8768 71.138 60.8768 68.6942C60.8768 66.2504 61.8304 63.9031 63.5347 62.1517C65.239 60.4003 67.5595 59.383 70.0024 59.3164V51.0991H68.3087C68.0684 51.0991 67.838 51.1946 67.668 51.3645C67.4981 51.5344 67.4027 51.7649 67.4027 52.0052V54.2007C66.6509 54.3515 65.9122 54.5613 65.1933 54.8279L64.1548 53.0158C64.0949 52.9127 64.0153 52.8224 63.9206 52.7502C63.8258 52.6779 63.7177 52.625 63.6024 52.5946C63.4872 52.5641 63.3671 52.5567 63.249 52.5728C63.1309 52.5889 63.0171 52.6281 62.9142 52.6882L59.7708 54.4655C59.6679 54.5247 59.5778 54.6036 59.5056 54.6978C59.4334 54.7919 59.3806 54.8994 59.3501 55.0141C59.3197 55.1288 59.3122 55.2484 59.3282 55.3659C59.3442 55.4835 59.3833 55.5968 59.4432 55.6991L60.5235 57.574C59.9516 58.0796 59.4181 58.6271 58.9275 59.2119L57.1293 58.1734C56.9201 58.0544 56.6725 58.0229 56.4402 58.0855C56.2078 58.1481 56.0096 58.3 55.8887 58.5079L54.0765 61.6374C54.0159 61.7399 53.9765 61.8536 53.9605 61.9716C53.9445 62.0897 53.9523 62.2098 53.9835 62.3248C54.0147 62.4397 54.0686 62.5473 54.142 62.6411C54.2155 62.735 54.3069 62.8131 54.4111 62.871L56.2859 63.9583C56.0397 64.6806 55.8532 65.4218 55.7284 66.1747H53.6374C53.3965 66.1765 53.166 66.2735 52.9963 66.4445C52.8266 66.6156 52.7314 66.8467 52.7314 67.0877V70.705C52.7295 70.8245 52.7514 70.9433 52.7956 71.0544C52.8399 71.1655 52.9057 71.2667 52.9893 71.3522C53.0729 71.4377 53.1726 71.5059 53.2826 71.5527C53.3927 71.5995 53.5109 71.6241 53.6305 71.625H55.7911C55.9409 72.3793 56.1507 73.1204 56.4184 73.8414L54.6062 74.8798C54.3994 75.002 54.2491 75.2007 54.1878 75.4329C54.1265 75.6651 54.1591 75.9121 54.2786 76.1205L56.0838 79.2499C56.2048 79.4579 56.403 79.6097 56.6353 79.6723C56.8676 79.735 57.1153 79.7034 57.3244 79.5844L59.1993 78.4971C59.7054 79.0731 60.2554 79.609 60.8441 80.1002L59.7987 81.9123C59.7387 82.0147 59.6996 82.1279 59.6837 82.2455C59.6677 82.3631 59.6751 82.4827 59.7056 82.5973C59.736 82.712 59.7889 82.8195 59.8611 82.9137C59.9333 83.0079 60.0234 83.0868 60.1263 83.1459L63.2626 84.9581C63.4707 85.0767 63.7173 85.1081 63.9485 85.0454C64.1797 84.9827 64.3766 84.831 64.4963 84.6235L65.5836 82.7487C66.3088 82.9947 67.0522 83.1835 67.8069 83.3132V85.4041C67.8069 85.6432 67.9014 85.8727 68.0698 86.0424C68.2382 86.2121 68.4669 86.3084 68.706 86.3102H70.0024V78.072Z" fill="#FEC00F"/>
<path d="M70.316 57.2605C68.0539 57.2605 65.8426 57.9313 63.9618 59.188C62.0809 60.4448 60.615 62.2311 59.7493 64.321C58.8836 66.4109 58.6572 68.7105 59.0985 70.9291C59.5398 73.1478 60.6291 75.1857 62.2286 76.7852C63.8281 78.3848 65.8661 79.4741 68.0847 79.9154C70.3033 80.3567 72.603 80.1302 74.6929 79.2645C76.7828 78.3989 78.5691 76.9329 79.8258 75.0521C81.0826 73.1712 81.7534 70.9599 81.7534 68.6978C81.7534 67.1959 81.4575 65.7086 80.8827 64.321C80.308 62.9333 79.4655 61.6725 78.4034 60.6104C77.3414 59.5484 76.0805 58.7059 74.6929 58.1311C73.3053 57.5563 71.818 57.2605 70.316 57.2605ZM70.316 78.0791C68.4592 78.0791 66.6441 77.5285 65.1002 76.4969C63.5563 75.4653 62.353 73.9991 61.6424 72.2836C60.9319 70.5681 60.7459 68.6804 61.1082 66.8593C61.4704 65.0382 62.3646 63.3653 63.6775 62.0524C64.9905 60.7394 66.6633 59.8453 68.4845 59.483C70.3056 59.1208 72.1933 59.3067 73.9087 60.0173C75.6242 60.7278 77.0905 61.9311 78.122 63.475C79.1536 65.0189 79.7042 66.834 79.7042 68.6909C79.7042 71.1808 78.7151 73.5687 76.9545 75.3293C75.1939 77.09 72.8059 78.0791 70.316 78.0791Z" fill="#F99B1C"/>
<path d="M70.316 57.2605H70.0023V59.3096H70.316C72.8059 59.3096 75.1938 60.2987 76.9545 62.0593C78.7151 63.82 79.7042 66.2079 79.7042 68.6978C79.7042 71.1877 78.7151 73.5757 76.9545 75.3363C75.1938 77.0969 72.8059 78.086 70.316 78.086H70.0023V80.1351H70.316C71.8413 80.1728 73.3586 79.9049 74.7788 79.3472C76.199 78.7896 77.4932 77.9534 78.5853 76.8879C79.6774 75.8225 80.5453 74.5493 81.1378 73.1433C81.7304 71.7374 82.0356 70.227 82.0356 68.7013C82.0356 67.1756 81.7304 65.6653 81.1378 64.2593C80.5453 62.8533 79.6774 61.5801 78.5853 60.5147C77.4932 59.4492 76.199 58.6131 74.7788 58.0554C73.3586 57.4977 71.8413 57.2298 70.316 57.2675V57.2605Z" fill="#FEC00F"/>
<path d="M70.316 59.1211H70.0581V60.8356H70.316C72.4011 60.8356 74.4008 61.664 75.8752 63.1383C77.3496 64.6127 78.1779 66.6124 78.1779 68.6975C78.1779 70.7826 77.3496 72.7823 75.8752 74.2567C74.4008 75.7311 72.4011 76.5594 70.316 76.5594H70.0581V78.2739H70.316C71.5949 78.3084 72.8677 78.0863 74.0593 77.6208C75.2509 77.1552 76.3372 76.4556 77.2539 75.5633C78.1707 74.6709 78.8993 73.6039 79.3969 72.4253C79.8944 71.2467 80.1508 69.9803 80.1508 68.701C80.1508 67.4217 79.8944 66.1553 79.3969 64.9767C78.8993 63.798 78.1707 62.7311 77.2539 61.8387C76.3372 60.9464 75.2509 60.2468 74.0593 59.7812C72.8677 59.3156 71.5949 59.0936 70.316 59.1281V59.1211Z" fill="#FEC00F"/>
</svg>
