<svg width="101" height="101" viewBox="0 0 101 101" fill="none" xmlns="http://www.w3.org/2000/svg">
<mask id="mask0" mask-type="alpha" maskUnits="userSpaceOnUse" x="0" y="0" width="101" height="101">
<path d="M100.475 50.9576C100.74 23.3446 78.5706 0.744977 50.9576 0.479904C23.3446 0.21483 0.745032 22.3847 0.479959 49.9977C0.214885 77.6106 22.3847 100.21 49.9977 100.475C77.6107 100.74 100.21 78.5705 100.475 50.9576Z" fill="#A6DAE9"/>
</mask>
<g mask="url(#mask0)">
<path d="M100.475 51.4388C100.74 23.8258 78.5706 1.22618 50.9576 0.961105C23.3446 0.696032 0.745032 22.8659 0.479959 50.4789C0.214885 78.0918 22.3847 100.691 49.9977 100.957C77.6107 101.222 100.21 79.0517 100.475 51.4388Z" fill="#15B0BF"/>
<path d="M65.5069 98.4812C73.056 96.8682 80.0995 93.1699 85.9635 87.74C91.8276 82.31 96.3162 75.3301 99 67.4678L69.406 35.1793C67.3781 32.3286 64.584 30.2403 61.4144 29.2066C58.2447 28.173 54.8581 28.2455 51.7281 29.4142C48.5982 30.5829 45.8814 32.7893 43.9579 35.7248C42.0343 38.6602 41.0001 42.1779 41 45.7859C41 46.3511 41.3728 54.3387 47.3574 62.7468C49.0889 65.2624 48.7856 70.3279 48.7666 70.3693H48.4633C48.3565 70.3692 48.2508 70.3923 48.1523 70.4371C48.0537 70.4818 47.9643 70.5474 47.8891 70.6301C47.8139 70.7127 47.7544 70.8108 47.7141 70.9186C47.6739 71.0264 47.6536 71.1419 47.6544 71.2583C47.6557 71.4869 47.7371 71.7064 47.8819 71.8717L48.8109 72.8848V73.319H48.4696C48.3085 73.3209 48.1516 73.3748 48.0186 73.4739C47.8856 73.573 47.7825 73.7129 47.7224 73.8759C47.6622 74.0388 47.6476 74.2175 47.6805 74.3895C47.7134 74.5615 47.7923 74.7189 47.9072 74.8421L48.8361 75.8552V76.248H48.4949C48.2803 76.248 48.0746 76.341 47.9229 76.5064C47.7712 76.6718 47.686 76.8962 47.686 77.1302C47.6842 77.2621 47.7101 77.3927 47.7615 77.5122C47.813 77.6316 47.8887 77.7366 47.983 77.8194L48.8614 78.7842V79.3769C48.8628 79.6059 48.9283 79.8289 49.0492 80.0161C49.17 80.2034 49.3404 80.3458 49.5376 80.4245C49.5497 80.6589 49.6293 80.8832 49.7651 81.0654L49.7082 81.1275L65.5069 98.4812Z" fill="#1695A4"/>
<path d="M91 62.9458C89.6405 71.4061 86.5233 79.2996 81.9467 85.8714C77.37 92.4432 71.6268 94.9735 65 97.9812L37.6456 67.3155C35.2428 65.0429 33.4827 61.9115 32.6114 58.3594C31.7402 54.8072 31.8014 51.0118 32.7864 47.5041C33.7715 43.9964 35.6311 40.9518 38.1053 38.7961C40.5795 36.6404 43.5444 35.4814 46.5854 35.4812C47.0617 35.4812 53.7942 35.899 60.881 42.6058C63.0013 44.5464 67.2708 44.2064 67.3056 44.1852L67.3056 43.8452C67.3056 43.7256 67.3251 43.6071 67.3628 43.4967C67.4005 43.3862 67.4558 43.286 67.5255 43.2017C67.5951 43.1174 67.6778 43.0508 67.7687 43.0057C67.8595 42.9605 67.9569 42.9378 68.055 42.9387C68.2477 42.9402 68.4326 43.0314 68.572 43.1937L69.4259 44.2347L69.7918 44.2347L69.7918 43.8523C69.7935 43.6718 69.8389 43.4959 69.9225 43.3469C70.006 43.1979 70.1239 43.0823 70.2612 43.0149C70.3986 42.9475 70.5492 42.9311 70.6941 42.968C70.8391 43.0049 70.9718 43.0932 71.0756 43.222L71.9295 44.2631L72.2606 44.2631L72.2606 43.8806C72.2606 43.6402 72.3389 43.4096 72.4784 43.2396C72.6178 43.0696 72.8069 42.9741 73.0041 42.9741C73.1153 42.9721 73.2255 43.0011 73.3261 43.0588C73.4268 43.1165 73.5153 43.2013 73.585 43.307L74.3983 44.2914L74.8978 44.2914C75.0908 44.293 75.2788 44.3664 75.4366 44.5018C75.5944 44.6372 75.7145 44.8282 75.7808 45.0492C75.9784 45.0628 76.1674 45.152 76.321 45.3041L76.3733 45.2404L91 62.9458Z" fill="#1695A4"/>
<path d="M71.6961 44.6784H68.7889C68.5812 43.6641 68.2988 42.6665 67.9441 41.6937L70.3727 40.2859C70.6536 40.1225 70.8585 39.8548 70.9429 39.541C71.0273 39.2272 70.9843 38.8928 70.8232 38.6105L68.3806 34.387C68.3011 34.2483 68.195 34.1267 68.0682 34.0292C67.9415 33.9318 67.7968 33.8604 67.6423 33.8191C67.4879 33.7779 67.3268 33.7677 67.1684 33.789C67.01 33.8104 66.8573 33.8629 66.7193 33.9435L64.1852 35.4006C63.5045 34.6248 62.763 33.9045 61.9678 33.2466L63.3757 30.804C63.4565 30.6654 63.5091 30.5123 63.5305 30.3533C63.552 30.1943 63.5418 30.0327 63.5006 29.8777C63.4594 29.7227 63.3879 29.5773 63.2904 29.45C63.1929 29.3226 63.0711 29.2158 62.9322 29.1357L58.7086 26.693C58.4275 26.5323 58.0941 26.4895 57.7815 26.5739C57.4688 26.6584 57.2023 26.8632 57.0403 27.1436L55.5832 29.6707C54.6051 29.3391 53.6024 29.0849 52.5844 28.9104V26.0947C52.5844 25.7699 52.4554 25.4583 52.2257 25.2286C51.996 24.9989 51.6845 24.8699 51.3596 24.8699H46.4814C46.1565 24.8699 45.845 24.9989 45.6153 25.2286C45.3856 25.4583 45.2566 25.7699 45.2566 26.0947V29.009C44.2441 29.212 43.2487 29.492 42.2789 29.8466L40.8711 27.4181C40.7908 27.2783 40.6838 27.1558 40.5561 27.0574C40.4284 26.9591 40.2826 26.8869 40.1269 26.8451C39.9713 26.8032 39.8089 26.7925 39.6491 26.8135C39.4893 26.8346 39.3353 26.8869 39.1957 26.9676L34.9722 29.4102C34.8332 29.4904 34.7115 29.5972 34.6139 29.7245C34.5164 29.8518 34.445 29.9972 34.4038 30.1522C34.3626 30.3072 34.3524 30.4689 34.3738 30.6278C34.3953 30.7868 34.4479 30.94 34.5287 31.0785L35.9858 33.6056C35.2126 34.2994 34.4948 35.0526 33.8388 35.8582L31.4032 34.4503C31.1206 34.2911 30.7868 34.2492 30.4736 34.3334C30.1603 34.4176 29.8926 34.6214 29.7279 34.9008L27.2853 39.1244C27.1268 39.4049 27.0852 39.7366 27.1695 40.0475C27.2538 40.3585 27.4573 40.6237 27.7358 40.7857L30.2629 42.1935C29.9304 43.1714 29.6762 44.1741 29.5026 45.1923H26.6869C26.5264 45.1923 26.3675 45.224 26.2193 45.2856C26.0711 45.3473 25.9365 45.4376 25.8233 45.5514C25.7101 45.6653 25.6206 45.8003 25.5598 45.9489C25.499 46.0975 25.4682 46.2566 25.4691 46.4171V51.3446C25.4682 51.5048 25.4991 51.6636 25.5599 51.8117C25.6208 51.9599 25.7105 52.0945 25.8237 52.2078C25.937 52.3211 26.0716 52.4107 26.2198 52.4716C26.368 52.5325 26.5267 52.5633 26.6869 52.5624H29.6012C29.8023 53.5776 30.0824 54.5755 30.4389 55.547L28.0033 56.9549C27.7246 57.1168 27.5214 57.3825 27.4383 57.6939C27.3551 58.0053 27.3988 58.3369 27.5598 58.6162L29.9954 62.8397C30.1599 63.1194 30.4282 63.3229 30.7419 63.4059C31.0556 63.4889 31.3894 63.4448 31.6707 63.2832L34.1978 61.8261C34.8803 62.6024 35.6216 63.3249 36.4152 63.9871L35.0074 66.4227C34.9266 66.5613 34.8739 66.7145 34.8525 66.8734C34.8311 67.0324 34.8412 67.194 34.8824 67.349C34.9236 67.5041 34.9951 67.6494 35.0926 67.7767C35.1902 67.9041 35.3119 68.0109 35.4508 68.091L39.6744 70.5266C39.8124 70.6073 39.9651 70.6598 40.1235 70.6811C40.2819 70.7025 40.443 70.6922 40.5974 70.651C40.7519 70.6098 40.8966 70.5384 41.0233 70.4409C41.15 70.3434 41.2562 70.2219 41.3357 70.0832L42.8069 67.5349C43.7845 67.8682 44.7873 68.1225 45.8056 68.2952V71.1109C45.8056 71.2705 45.8372 71.4285 45.8984 71.5759C45.9597 71.7232 46.0495 71.857 46.1627 71.9695C46.2759 72.082 46.4102 72.1711 46.5579 72.2315C46.7056 72.2919 46.8638 72.3226 47.0234 72.3216H51.9016C52.2253 72.3254 52.5373 72.2009 52.7694 71.9754C53.0016 71.7498 53.135 71.4415 53.1405 71.1179V68.1966C54.153 67.9936 55.1484 67.7136 56.1182 67.359L57.526 69.7875C57.6049 69.9268 57.7106 70.0491 57.8371 70.1472C57.9635 70.2454 58.1082 70.3175 58.2626 70.3594C58.4171 70.4013 58.5784 70.4121 58.7371 70.3913C58.8958 70.3705 59.0488 70.3184 59.1873 70.238L63.4108 67.7954C63.5492 67.7147 63.6703 67.6074 63.7671 67.4798C63.864 67.3522 63.9347 67.2068 63.9752 67.0518C64.0158 66.8968 64.0253 66.7354 64.0034 66.5767C63.9814 66.418 63.9284 66.2652 63.8473 66.1271L62.3831 63.6C63.1616 62.9201 63.8865 62.1811 64.5512 61.3896L66.9868 62.7975C67.268 62.9582 67.6013 63.001 67.914 62.9166C68.2266 62.8322 68.4931 62.6274 68.6551 62.347L71.0977 58.1234C71.2568 57.8438 71.2995 57.5127 71.2165 57.2019C71.1335 56.891 70.9316 56.6253 70.6543 56.4621L68.1201 55.005C68.4526 54.0272 68.7068 53.0244 68.8804 52.0063H71.6961C71.8566 52.0063 72.0155 51.9746 72.1637 51.9129C72.312 51.8513 72.4465 51.7609 72.5597 51.6471C72.6729 51.5333 72.7624 51.3982 72.8232 51.2496C72.884 51.1011 72.9148 50.942 72.9139 50.7815V45.8962C72.9148 45.736 72.8839 45.5772 72.8231 45.4291C72.7622 45.2809 72.6725 45.1463 72.5593 45.033C72.446 44.9197 72.3114 44.8301 72.1632 44.7692C72.015 44.7083 71.8563 44.6775 71.6961 44.6784ZM49.1704 61.27C46.6644 61.27 44.2146 60.5269 42.1309 59.1346C40.0472 57.7423 38.4232 55.7634 37.4642 53.4481C36.5052 51.1329 36.2542 48.5852 36.7432 46.1273C37.2321 43.6695 38.4388 41.4118 40.2108 39.6397C41.9829 37.8677 44.2406 36.6609 46.6985 36.172C49.1563 35.6831 51.704 35.9341 54.0193 36.8931C56.3345 37.8521 58.3134 39.4761 59.7057 41.5598C61.098 43.6435 61.8411 46.0933 61.8411 48.5993C61.8411 51.9561 60.5091 55.1757 58.1374 57.5514C55.7657 59.927 52.5483 61.2644 49.1915 61.27H49.1704Z" fill="#454545"/>
<path d="M48.7692 61.2559C45.5406 61.0693 42.5057 59.6553 40.2859 57.3035C38.0662 54.9518 36.8297 51.8403 36.8297 48.6064C36.8297 45.3725 38.0662 42.261 40.2859 39.9092C42.5057 37.5574 45.5406 36.1434 48.7692 35.9568V24.877H46.4814C46.1565 24.877 45.845 25.006 45.6153 25.2357C45.3856 25.4654 45.2566 25.7769 45.2566 26.1018V29.016C44.2441 29.219 43.2487 29.4991 42.2789 29.8537L40.8711 27.4252C40.7908 27.2854 40.6838 27.1628 40.5561 27.0645C40.4284 26.9662 40.2826 26.894 40.1269 26.8522C39.9713 26.8103 39.8089 26.7996 39.6491 26.8206C39.4893 26.8416 39.3353 26.894 39.1957 26.9747L34.9722 29.4173C34.8332 29.4974 34.7115 29.6042 34.6139 29.7316C34.5164 29.8589 34.445 30.0043 34.4038 30.1593C34.3626 30.3143 34.3524 30.4759 34.3738 30.6349C34.3953 30.7939 34.4479 30.947 34.5287 31.0856L35.9858 33.6127C35.2129 34.3043 34.495 35.055 33.8388 35.8582L31.4032 34.4504C31.1206 34.2912 30.7868 34.2492 30.4736 34.3334C30.1603 34.4177 29.8926 34.6214 29.7279 34.9009L27.2853 39.1244C27.1268 39.405 27.0852 39.7366 27.1695 40.0476C27.2538 40.3585 27.4573 40.6237 27.7358 40.7857L30.2629 42.1936C29.9304 43.1714 29.6762 44.1742 29.5026 45.1923H26.6869C26.5264 45.1923 26.3675 45.224 26.2193 45.2857C26.0711 45.3473 25.9365 45.4376 25.8233 45.5515C25.7101 45.6653 25.6206 45.8004 25.5598 45.9489C25.499 46.0975 25.4682 46.2566 25.4691 46.4171V51.3446C25.4682 51.5048 25.4991 51.6636 25.5599 51.8118C25.6208 51.9599 25.7105 52.0946 25.8237 52.2078C25.937 52.3211 26.0716 52.4108 26.2198 52.4716C26.368 52.5325 26.5267 52.5634 26.6869 52.5624H29.6012C29.8023 53.5776 30.0824 54.5755 30.4389 55.5471L28.0033 56.9549C27.7246 57.1168 27.5214 57.3825 27.4383 57.6939C27.3551 58.0053 27.3988 58.337 27.5598 58.6162L29.9954 62.8398C30.1599 63.1195 30.4282 63.3229 30.7419 63.4059C31.0556 63.489 31.3894 63.4449 31.6707 63.2832L34.1978 61.8261C34.8803 62.6024 35.6216 63.3249 36.4152 63.9872L35.0074 66.4228C34.9266 66.5613 34.8739 66.7145 34.8525 66.8735C34.8311 67.0324 34.8412 67.1941 34.8824 67.3491C34.9236 67.5041 34.9951 67.6494 35.0926 67.7768C35.1902 67.9041 35.3119 68.0109 35.4508 68.0911L39.6744 70.5267C39.8124 70.6073 39.9651 70.6598 40.1235 70.6812C40.2819 70.7025 40.443 70.6923 40.5974 70.651C40.7519 70.6098 40.8966 70.5384 41.0233 70.4409C41.15 70.3435 41.2562 70.2219 41.3357 70.0832L42.8069 67.535C43.7845 67.8683 44.7873 68.1225 45.8056 68.2952V71.1109C45.8056 71.2705 45.8372 71.4285 45.8984 71.5759C45.9597 71.7233 46.0495 71.857 46.1627 71.9696C46.2759 72.0821 46.4102 72.1711 46.5579 72.2315C46.7056 72.292 46.8638 72.3226 47.0234 72.3217H48.7692V61.2559Z" fill="#454545"/>
<path d="M49.1915 33.1902C46.1425 33.1902 43.162 34.0943 40.6269 35.7883C38.0917 37.4822 36.1158 39.8898 34.949 42.7068C33.7822 45.5237 33.4769 48.6233 34.0717 51.6137C34.6666 54.6041 36.1348 57.351 38.2908 59.507C40.4467 61.663 43.1936 63.1312 46.184 63.726C49.1744 64.3208 52.2741 64.0156 55.091 62.8488C57.9079 61.682 60.3156 59.706 62.0095 57.1709C63.7034 54.6357 64.6076 51.6552 64.6076 48.6062C64.6076 44.5176 62.9834 40.5965 60.0923 37.7054C57.2013 34.8144 53.2801 33.1902 49.1915 33.1902ZM49.1915 61.2699C46.6855 61.2699 44.2358 60.5267 42.1521 59.1345C40.0684 57.7422 38.4444 55.7633 37.4853 53.448C36.5263 51.1328 36.2754 48.5851 36.7643 46.1272C37.2532 43.6694 38.46 41.4117 40.232 39.6396C42.004 37.8676 44.2617 36.6608 46.7196 36.1719C49.1775 35.683 51.7251 35.934 54.0404 36.893C56.3557 37.852 58.3346 39.476 59.7268 41.5597C61.1191 43.6434 61.8622 46.0931 61.8622 48.5992C61.8622 51.9596 60.5273 55.1825 58.1511 57.5587C55.7749 59.9349 52.552 61.2699 49.1915 61.2699Z" fill="#1695A4"/>
<path d="M49.1916 33.1901H48.7692V35.9425H49.1916C52.552 35.9425 55.7749 37.2774 58.1511 39.6537C60.5273 42.0299 61.8623 45.2527 61.8623 48.6132C61.8623 51.9737 60.5273 55.1965 58.1511 57.5727C55.7749 59.949 52.552 61.2839 49.1916 61.2839H48.7692V64.0151H49.1916C53.2801 64.0151 57.2013 62.391 60.0923 59.4999C62.9834 56.6088 64.6076 52.6877 64.6076 48.5991C64.6076 44.5105 62.9834 40.5894 60.0923 37.6984C57.2013 34.8073 53.2801 33.1831 49.1916 33.1831V33.1901Z" fill="#15B0BF"/>
<path d="M73.6668 72.7651C73.2277 73.1964 72.6352 73.4382 72.0178 73.4382C71.4004 73.4382 70.8079 73.1964 70.3688 72.7651L52.0264 54.3903C51.5902 53.9545 51.3461 53.3644 51.3477 52.7497C51.3493 52.1351 51.5966 51.5462 52.0351 51.1127C52.4736 50.6792 53.0674 50.4366 53.6858 50.4382C54.3043 50.4399 54.8969 50.6856 55.3331 51.1213L73.6668 69.4875C74.1029 69.9228 74.3477 70.512 74.3477 71.1263C74.3477 71.7405 74.1029 72.3298 73.6668 72.7651Z" fill="#FEC00F"/>
<path d="M24.6315 24.0534C27.7675 20.9311 31.8892 18.9929 36.2941 18.5691C40.699 18.1453 45.1146 19.2622 48.7884 21.7293C52.4621 24.1964 55.1667 27.8611 56.4411 32.0989C57.7156 36.3367 57.4811 40.8853 55.7775 44.9695C54.074 49.0538 51.0068 52.4209 47.0988 54.4971C43.1908 56.5733 38.6838 57.23 34.3458 56.3554C30.0078 55.4808 26.1073 53.129 23.3091 49.7008C20.5108 46.2725 18.988 41.98 19.0001 37.5547C19.0023 35.0441 19.501 32.5588 20.4675 30.2417C21.434 27.9246 22.8491 25.8215 24.6315 24.0534Z" fill="#0E303F"/>
<path d="M28.1019 27.5165C25.4303 30.19 23.9302 33.8152 23.9315 37.5947C23.9328 41.3742 25.4355 44.9984 28.109 47.67C30.7824 50.3416 34.4076 51.8417 38.1871 51.8404C41.9667 51.8391 45.5908 50.3364 48.2624 47.663C50.934 44.9895 52.4341 41.3643 52.4328 37.5848C52.4315 33.8053 50.9288 30.1811 48.2554 27.5095C45.5819 24.8379 41.9567 23.3378 38.1772 23.3391C34.3977 23.3404 30.7735 24.8431 28.1019 27.5165Z" fill="#D1ECFB"/>
<path d="M48.2694 27.5307C46.9551 26.1949 45.3884 25.1336 43.6603 24.4085C41.9322 23.6835 40.0773 23.3091 38.2033 23.3072C37.1446 23.3005 36.0888 23.4162 35.0567 23.6521C32.5558 24.7861 30.4338 26.6154 28.9435 28.9219C27.4533 31.2283 26.6578 33.9147 26.6518 36.6607C26.6481 40.4401 28.1439 44.0666 30.8111 46.7443C33.4782 49.422 37.0988 50.9322 40.8782 50.9434C41.9365 50.9431 42.9915 50.8274 44.0247 50.5984C45.5978 49.8821 47.0286 48.8877 48.2483 47.6631C49.5705 46.3413 50.6193 44.772 51.3349 43.0448C52.0505 41.3177 52.4188 39.4664 52.4188 37.5969C52.4188 35.7274 52.0505 33.8761 51.3349 32.1489C50.6193 30.4218 49.5705 28.8525 48.2483 27.5307H48.2694Z" fill="white"/>
<path d="M55.724 55.2865C55.497 55.5146 55.2272 55.6957 54.93 55.8192C54.6329 55.9428 54.3142 56.0064 53.9924 56.0064C53.6705 56.0064 53.3519 55.9428 53.0547 55.8192C52.7575 55.6957 52.4877 55.5146 52.2607 55.2865L49.2057 52.1399C48.7483 51.6797 48.4916 51.0571 48.4916 50.4083C48.4916 49.7594 48.7483 49.1369 49.2057 48.6766C49.6671 48.2188 50.2908 47.9619 50.9408 47.9619C51.5909 47.9619 52.2145 48.2188 52.676 48.6766L55.724 51.8302C56.1831 52.2896 56.441 52.9124 56.441 53.5619C56.441 54.2113 56.1831 54.8342 55.724 55.2935V55.2865Z" fill="#0E303F"/>
<path d="M38.2103 19.5129C43.0046 19.5129 47.6025 21.4175 50.9926 24.8075C54.3826 28.1976 56.2872 32.7955 56.2872 37.5898C56.2872 42.3841 54.3826 46.982 50.9926 50.3721C47.6025 53.7621 43.0046 55.6667 38.2103 55.6667V53.2592C42.3077 53.1724 46.2079 51.4837 49.075 48.5552C51.942 45.6268 53.5476 41.6916 53.5476 37.5933C53.5476 33.495 51.942 29.5599 49.075 26.6314C46.2079 23.7029 42.3077 22.0143 38.2103 21.9274V19.5129Z" fill="#2C5871"/>
<path d="M36.535 48.6063C36.535 45.2458 37.8699 42.023 40.2461 39.6468C42.6223 37.2705 45.8452 35.9356 49.2057 35.9356C50.2821 35.9423 51.3534 36.0842 52.3945 36.3579C52.2021 34.1121 51.4781 31.9443 50.2823 30.0336C49.0864 28.1229 47.453 26.5242 45.5171 25.3696C45.3616 25.5718 45.2753 25.8186 45.2707 26.0736V28.9878C44.2583 29.1908 43.2628 29.4708 42.2931 29.8255L40.8852 27.3969C40.805 27.2572 40.6979 27.1346 40.5703 27.0363C40.4426 26.938 40.2967 26.8658 40.1411 26.8239C39.9854 26.7821 39.8231 26.7714 39.6633 26.7924C39.5035 26.8134 39.3494 26.8658 39.2099 26.9464L34.9863 29.3891C34.8474 29.4692 34.7256 29.576 34.6281 29.7034C34.5306 29.8307 34.4591 29.976 34.4179 30.1311C34.3767 30.2861 34.3665 30.4477 34.388 30.6067C34.4094 30.7656 34.462 30.9188 34.5428 31.0574L36 33.5845C35.2211 34.2845 34.4985 35.0447 33.8389 35.8582L31.4033 34.4503C31.1207 34.2911 30.7869 34.2491 30.4736 34.3334C30.1604 34.4176 29.8927 34.6213 29.728 34.9008L27.2853 39.1244C27.1269 39.4049 27.0853 39.7365 27.1696 40.0475C27.2539 40.3585 27.4574 40.6237 27.7359 40.7857L30.263 42.1935C29.9305 43.1714 29.6763 44.1741 29.5027 45.1923H26.687C26.5198 45.1954 26.3548 45.2313 26.2013 45.2978C27.3782 47.1289 28.9589 48.6659 30.8222 49.7909C32.6856 50.916 34.7819 51.5992 36.9503 51.7881C36.6785 50.7492 36.5389 49.6801 36.535 48.6063Z" fill="#A6DAE9"/>
<path d="M29.5097 45.2134H26.694C26.5268 45.2165 26.3618 45.2524 26.2083 45.319C26.328 45.502 26.4547 45.685 26.5884 45.861L26.8489 46.22C27.0601 46.4875 27.2783 46.755 27.5035 47.0154L27.8062 47.3463C28.0104 47.5645 28.2286 47.7827 28.4538 47.9939L28.8692 48.367C29.0311 48.5148 29.2 48.6486 29.3689 48.7823L29.7702 49.085C30.0306 49.275 30.2981 49.4581 30.5797 49.6341L30.9739 49.8804C31.2555 50.0423 31.5511 50.1972 31.8468 50.345L32.2902 50.5632C32.4873 50.6547 32.6915 50.7463 32.8956 50.8237C33.0998 50.9011 33.2757 50.9645 33.4658 51.0349C33.6559 51.1053 34.036 51.2249 34.3246 51.3094L34.7822 51.422C35.12 51.5065 35.4861 51.5769 35.8099 51.6402L36.2815 51.7106L36.9854 51.7881C36.8579 51.2968 36.7591 50.7985 36.6898 50.2957C33.8228 49.3962 31.3111 47.6183 29.5097 45.2134Z" fill="#8FC4D7"/>
</g>
</svg>
