<svg width="100" height="100" viewBox="0 0 100 100" fill="none" xmlns="http://www.w3.org/2000/svg">
<path d="M49.97 99.9399C40.0869 99.9399 30.4257 97.0093 22.2082 91.5185C13.9906 86.0277 7.58587 78.2235 3.80376 69.0927C0.0216515 59.9618 -0.967921 49.9146 0.960181 40.2213C2.88828 30.5281 7.64746 21.6243 14.6359 14.6359C21.6243 7.64746 30.5281 2.88828 40.2213 0.960181C49.9145 -0.967921 59.9618 0.0216515 69.0927 3.80376C78.2235 7.58587 86.0277 13.9906 91.5185 22.2082C97.0093 30.4257 99.9399 40.0869 99.9399 49.97C99.9399 63.2228 94.6753 75.9329 85.3041 85.3041C75.9329 94.6753 63.2228 99.9399 49.97 99.9399Z" fill="#2C5871"/>
<path d="M99.2361 55.1289L75.8065 31.6852C71.5837 26.7586 64.4472 23.5 56.3323 23.5C45.4586 23.5 36.3162 29.3416 33.6629 37.2593C24.9076 39.0822 18.4467 45.3601 18.4467 52.8345C18.4683 54.6738 18.8524 56.4908 19.577 58.1816C20.3016 59.8723 21.3525 61.4035 22.6695 62.6877L22.5076 62.8496L28.9755 69.3175C27.6793 71.0452 25.9906 72.4396 24.0489 73.3855L50.1459 99.4825C52.5349 99.4656 54.9197 99.2798 57.2825 98.9265C67.8548 97.039 77.5735 91.8964 85.0812 84.2171C92.5889 76.5378 97.5105 66.7054 99.1587 56.0931L99.2361 55.1289Z" fill="#0E303F"/>
<path d="M38.8851 36.7244C27.6243 36.7244 18.4749 43.9383 18.4749 52.8344C18.4749 59.2671 23.2677 64.799 30.172 67.382C30.0389 67.6709 29.8909 67.9528 29.7287 68.2266C28.381 70.4597 26.4056 72.2466 24.049 73.3643C29.2641 73.7373 34.0922 72.1749 37.2805 68.8881C37.8083 68.8881 38.3432 68.9515 38.8851 68.9515C50.146 68.9515 59.2954 61.7375 59.2954 52.8414C59.2954 43.9454 50.1741 36.7244 38.8851 36.7244Z" fill="#FEC00F"/>
<path d="M52.9541 64.5176C40.2857 64.2361 30.1791 56.072 30.1791 46.0428C30.1983 42.9678 31.1397 39.9693 32.8817 37.4353C34.8481 36.9648 36.8632 36.7285 38.8851 36.7315C50.1459 36.7315 59.2954 43.9454 59.2954 52.8415C59.3235 57.4373 56.8743 61.5757 52.9541 64.5176Z" fill="#F99B1C"/>
<path d="M56.3042 23.5C69.2542 23.5 79.7549 31.7767 79.7549 41.9818C79.7549 49.3647 74.2511 55.713 66.3334 58.676C66.4882 58.9927 66.6219 59.3235 66.8049 59.6332C68.3561 62.1906 70.6215 64.2383 73.3221 65.524C67.3398 65.9534 61.8009 64.1587 58.1482 60.3933C57.5358 60.3933 56.9235 60.4637 56.3042 60.4637C43.3542 60.4637 32.8605 52.194 32.8605 41.9818C32.8605 31.7697 43.3824 23.5 56.3042 23.5Z" fill="white"/>
<path d="M79.7831 42.0452C79.7831 49.3999 74.2582 55.72 66.3616 58.676C66.5164 58.9927 66.6501 59.3235 66.8331 59.6332C68.3843 62.1906 70.6497 64.2383 73.3503 65.524C67.368 65.9533 61.8291 64.1586 58.1764 60.3933C57.564 60.3933 56.9517 60.4637 56.3324 60.4637C43.4106 60.4848 32.931 52.2221 32.8887 42.0452H79.7831Z" fill="#D1ECFB"/>
<path d="M63.0607 42.3196C63.0607 42.9707 63.2537 43.6072 63.6153 44.1488C63.977 44.6903 64.491 45.1124 65.0924 45.3619C65.6939 45.6114 66.3558 45.6771 66.9945 45.5506C67.6333 45.424 68.2202 45.111 68.6811 44.6511C69.142 44.1912 69.4563 43.6049 69.5842 42.9664C69.7121 42.328 69.6478 41.6659 69.3996 41.0639C69.1514 40.462 68.7303 39.9471 68.1896 39.5843C67.6488 39.2215 67.0127 39.0271 66.3616 39.0258C65.4873 39.0258 64.6488 39.3726 64.03 39.9901C63.4112 40.6076 63.0626 41.4453 63.0607 42.3196Z" fill="#1695A4"/>
<path d="M52.9682 42.3196C52.9683 42.9693 53.1604 43.6044 53.5205 44.1451C53.8806 44.6858 54.3925 45.1079 54.992 45.3584C55.5914 45.6089 56.2515 45.6766 56.8892 45.5529C57.527 45.4292 58.1139 45.1196 58.5762 44.6632C59.0385 44.2068 59.3554 43.6238 59.4873 42.9877C59.6191 42.3516 59.5599 41.6907 59.317 41.0881C59.0742 40.4856 58.6586 39.9683 58.1225 39.6013C57.5864 39.2344 56.9538 39.0342 56.3042 39.0258C55.8684 39.0212 55.436 39.1029 55.0319 39.2663C54.6278 39.4296 54.26 39.6714 53.9499 39.9776C53.6397 40.2838 53.3933 40.6485 53.2248 41.0504C53.0563 41.4524 52.9691 41.8838 52.9682 42.3196Z" fill="#1695A4"/>
<path d="M42.8757 42.3196C42.8757 42.971 43.0688 43.6078 43.4308 44.1495C43.7927 44.6911 44.3071 45.1133 44.909 45.3626C45.5108 45.6119 46.1731 45.6771 46.8121 45.5501C47.451 45.423 48.0379 45.1093 48.4985 44.6486C48.9592 44.188 49.2729 43.6011 49.4 42.9621C49.5271 42.3232 49.4618 41.6609 49.2125 41.0591C48.9632 40.4572 48.5411 39.9428 47.9994 39.5809C47.4577 39.2189 46.8209 39.0258 46.1695 39.0258C45.2959 39.0258 44.4581 39.3728 43.8404 39.9905C43.2227 40.6082 42.8757 41.446 42.8757 42.3196Z" fill="#1695A4"/>
<path d="M69.6131 42.0451H63.0889C63.1549 41.2252 63.5272 40.4603 64.1317 39.9025C64.7361 39.3447 65.5285 39.035 66.351 39.035C67.1735 39.035 67.9658 39.3447 68.5703 39.9025C69.1748 40.4603 69.5471 41.2252 69.6131 42.0451Z" fill="#15B0BF"/>
<path d="M59.5206 42.0451H52.9963C53.0623 41.2252 53.4346 40.4603 54.0391 39.9025C54.6436 39.3447 55.436 39.035 56.2585 39.035C57.081 39.035 57.8733 39.3447 58.4778 39.9025C59.0823 40.4603 59.4546 41.2252 59.5206 42.0451Z" fill="#15B0BF"/>
<path d="M49.428 42.0451H42.9319C42.998 41.2252 43.3703 40.4603 43.9747 39.9025C44.5792 39.3447 45.3716 39.035 46.1941 39.035C47.0166 39.035 47.8089 39.3447 48.4134 39.9025C49.0179 40.4603 49.3902 41.2252 49.4562 42.0451H49.428Z" fill="#15B0BF"/>
</svg>
