<svg width="101" height="101" viewBox="0 0 101 101" fill="none" xmlns="http://www.w3.org/2000/svg">
<path d="M100.475 50.9576C100.74 23.3446 78.5706 0.744977 50.9576 0.479904C23.3446 0.21483 0.745032 22.3847 0.479959 49.9977C0.214885 77.6106 22.3847 100.21 49.9977 100.475C77.6107 100.74 100.21 78.5705 100.475 50.9576Z" fill="#15B0BF"/>
<path d="M59.9958 99.5238C68.4048 97.8763 76.2505 94.0989 82.7826 88.5528C89.3146 83.0068 94.3145 75.8776 97.304 67.847L64.339 34.868C62.0802 31.9563 58.9678 29.8234 55.4371 28.7676C51.9064 27.7118 48.134 27.7859 44.6476 28.9796C41.1611 30.1733 38.1349 32.4269 35.9922 35.4251C33.8496 38.4233 32.6976 42.0163 32.6974 45.7015C32.6974 46.2787 33.1128 54.4372 39.779 63.0251C41.7077 65.5945 41.3698 70.7683 41.3487 70.8106H41.0108C40.8919 70.8106 40.7742 70.8341 40.6644 70.8798C40.5546 70.9256 40.455 70.9926 40.3712 71.077C40.2875 71.1614 40.2212 71.2615 40.1764 71.3717C40.1315 71.4818 40.1089 71.5997 40.1098 71.7186C40.1113 71.9522 40.2019 72.1763 40.3632 72.3451L41.398 73.3799V73.8234H41.0179C40.8385 73.8254 40.6637 73.8804 40.5155 73.9817C40.3674 74.0829 40.2526 74.2258 40.1855 74.3922C40.1185 74.5586 40.1023 74.7412 40.1389 74.9168C40.1756 75.0925 40.2634 75.2533 40.3914 75.3791L41.4262 76.4138V76.8151H41.046C40.8071 76.8151 40.5779 76.91 40.4089 77.079C40.2399 77.248 40.145 77.4771 40.145 77.7161C40.143 77.8509 40.1718 77.9843 40.2292 78.1063C40.2865 78.2283 40.3708 78.3356 40.4759 78.42L41.4543 79.4055V80.0109C41.4559 80.2448 41.5288 80.4726 41.6634 80.6638C41.7981 80.855 41.9879 81.0006 42.2075 81.0809C42.221 81.3203 42.3097 81.5494 42.4609 81.7355L42.3976 81.7989L59.9958 99.5238Z" fill="#1695A4"/>
<path d="M57.4968 82.2141H43.2775C42.9914 82.1916 42.7243 82.062 42.5296 81.8513C42.3348 81.6406 42.2266 81.3642 42.2266 81.0773C42.2266 80.7903 42.3348 80.5139 42.5296 80.3032C42.7243 80.0925 42.9914 79.963 43.2775 79.9404H57.4968C57.7829 79.963 58.0499 80.0925 58.2447 80.3032C58.4395 80.5139 58.5476 80.7903 58.5476 81.0773C58.5476 81.3642 58.4395 81.6406 58.2447 81.8513C58.0499 82.062 57.7829 82.1916 57.4968 82.2141Z" fill="#2C5871"/>
<path d="M32.6974 45.7014C32.6974 41.0135 34.5597 36.5177 37.8745 33.2028C41.1893 29.888 45.6852 28.0258 50.3731 28.0258C55.0609 28.0258 59.5568 29.888 62.8716 33.2028C66.1865 36.5177 68.0487 41.0135 68.0487 45.7014C68.0487 46.2786 67.6264 54.4512 60.9672 63.025C59.0173 65.6085 59.3411 70.8175 59.3552 70.8175H41.3487C41.3487 70.8175 41.7218 65.6085 39.779 63.025C33.1128 54.4371 32.6974 46.2786 32.6974 45.7014Z" fill="#A6DAE9"/>
<path d="M50.3731 70.8175H41.3487C41.3487 70.8175 41.7218 65.6085 39.779 63.0251C33.1128 54.4371 32.6975 46.2786 32.6975 45.7014C32.6965 43.3799 33.1531 41.081 34.041 38.9361C34.929 36.7912 36.2309 34.8423 37.8725 33.2008C39.514 31.5592 41.4629 30.2573 43.6078 29.3694C45.7527 28.4814 48.0516 28.0248 50.3731 28.0258" fill="white"/>
<path d="M64.2968 45.6944H62.7482C62.7426 42.4153 61.4365 39.2724 59.1166 36.955C56.7966 34.6377 53.6522 33.3352 50.3731 33.3334V31.7777C54.0635 31.7814 57.6019 33.2486 60.2121 35.8575C62.8222 38.4664 64.2912 42.0039 64.2968 45.6944Z" fill="white"/>
<path d="M54.2306 72.1973L52.7031 71.9439L55.7229 53.6699L57.2575 53.9233L54.2306 72.1973Z" fill="#0E303F"/>
<path d="M46.5085 72.1973L43.4886 53.9233L45.0162 53.6699L48.0431 71.9439L46.5085 72.1973Z" fill="#0E303F"/>
<path d="M56.3917 56.2393C55.7511 56.2393 55.4766 55.6269 55.2795 55.1693C55.195 54.9863 55.019 54.5921 54.9204 54.5921C54.8219 54.5921 54.653 54.9863 54.5685 55.1693C54.3643 55.6269 54.0898 56.2393 53.4563 56.2393C52.8227 56.2393 52.5482 55.6269 52.3511 55.1693C52.2666 54.9863 52.0907 54.5921 51.9921 54.5921C51.8936 54.5921 51.7176 54.9863 51.6331 55.1693C51.436 55.6269 51.1615 56.2393 50.5279 56.2393C49.8944 56.2393 49.6128 55.6269 49.4157 55.1693C49.3313 54.9863 49.1553 54.5921 49.0567 54.5921C48.9582 54.5921 48.7822 54.9863 48.6977 55.1693C48.5006 55.6269 48.2261 56.2393 47.5855 56.2393C46.9449 56.2393 46.6775 55.6269 46.4733 55.1693C46.3959 54.9863 46.2199 54.5921 46.1143 54.5921C46.0087 54.5921 45.8468 54.9863 45.7624 55.1693C45.5582 55.6269 45.2837 56.2393 44.6501 56.2393V55.3875C44.7487 55.3875 44.9247 54.9933 45.0021 54.8103C45.2062 54.3528 45.4808 53.7404 46.1143 53.7404C46.7479 53.7404 47.0294 54.3528 47.2336 54.8103C47.318 54.9933 47.487 55.3875 47.5855 55.3875C47.6841 55.3875 47.8601 54.9933 47.9445 54.8103C48.1487 54.3528 48.4232 53.7404 49.0567 53.7404C49.6903 53.7404 49.9648 54.3528 50.1689 54.8103C50.2534 54.9933 50.4294 55.3875 50.5279 55.3875C50.6265 55.3875 50.7954 54.9933 50.8799 54.8103C51.084 54.3528 51.3586 53.7404 51.9921 53.7404C52.6256 53.7404 52.9002 54.3598 53.1043 54.8103C53.1818 55.0004 53.3577 55.3875 53.4563 55.3875C53.5548 55.3875 53.7308 55.0004 53.8153 54.8103C54.0124 54.3598 54.2869 53.7404 54.9204 53.7404C55.554 53.7404 55.8285 54.3598 56.0327 54.8103C56.1171 55.0004 56.2931 55.3875 56.3917 55.3875V56.2111V56.2393Z" fill="#0E303F"/>
<path d="M59.3763 70.8246V80.0672C59.3754 80.22 59.3442 80.3711 59.2845 80.5117C59.2247 80.6524 59.1376 80.7797 59.0283 80.8865C58.9189 80.9932 58.7895 81.0772 58.6474 81.1335C58.5054 81.1898 58.3536 81.2174 58.2008 81.2146H42.5384C42.2347 81.2127 41.9439 81.0912 41.7291 80.8765C41.5143 80.6617 41.3928 80.3709 41.391 80.0672V70.8246H59.3763Z" fill="#0E303F"/>
<path d="M59.7354 72.6196H41.0109C40.7847 72.5997 40.5743 72.4957 40.421 72.3283C40.2677 72.1608 40.1827 71.9421 40.1827 71.7151C40.1827 71.4881 40.2677 71.2693 40.421 71.1019C40.5743 70.9344 40.7847 70.8305 41.0109 70.8105H59.7354C59.8609 70.7994 59.9873 70.8146 60.1066 70.855C60.2259 70.8954 60.3355 70.9603 60.4284 71.0453C60.5214 71.1304 60.5956 71.2339 60.6463 71.3492C60.6971 71.4645 60.7233 71.5891 60.7233 71.7151C60.7233 71.8411 60.6971 71.9657 60.6463 72.081C60.5956 72.1963 60.5214 72.2997 60.4284 72.3848C60.3355 72.4699 60.2259 72.5347 60.1066 72.5751C59.9873 72.6155 59.8609 72.6307 59.7354 72.6196Z" fill="#2C5871"/>
<path d="M59.7354 75.6395H41.0109C40.7847 75.6196 40.5743 75.5156 40.421 75.3482C40.2677 75.1808 40.1827 74.962 40.1827 74.735C40.1827 74.508 40.2677 74.2892 40.421 74.1218C40.5743 73.9543 40.7847 73.8504 41.0109 73.8304H59.7354C59.8609 73.8193 59.9873 73.8345 60.1066 73.8749C60.2259 73.9153 60.3355 73.9802 60.4284 74.0652C60.5214 74.1503 60.5956 74.2538 60.6463 74.3691C60.6971 74.4844 60.7233 74.609 60.7233 74.735C60.7233 74.861 60.6971 74.9856 60.6463 75.1009C60.5956 75.2162 60.5214 75.3196 60.4284 75.4047C60.3355 75.4898 60.2259 75.5546 60.1066 75.595C59.9873 75.6355 59.8609 75.6506 59.7354 75.6395Z" fill="#2C5871"/>
<path d="M59.7354 78.6593H41.0109C40.7847 78.6393 40.5743 78.5354 40.421 78.368C40.2677 78.2005 40.1827 77.9818 40.1827 77.7548C40.1827 77.5277 40.2677 77.309 40.421 77.1415C40.5743 76.9741 40.7847 76.8702 41.0109 76.8502H59.7354C59.8609 76.8391 59.9873 76.8543 60.1066 76.8947C60.2259 76.9351 60.3355 76.9999 60.4284 77.085C60.5214 77.1701 60.5956 77.2736 60.6463 77.3889C60.6971 77.5042 60.7233 77.6288 60.7233 77.7548C60.7233 77.8807 60.6971 78.0053 60.6463 78.1206C60.5956 78.2359 60.5214 78.3394 60.4284 78.4245C60.3355 78.5096 60.2259 78.5744 60.1066 78.6148C59.9873 78.6552 59.8609 78.6704 59.7354 78.6593Z" fill="#2C5871"/>
<path d="M50.366 22.2606C50.2428 22.2606 50.1246 22.2117 50.0375 22.1245C49.9504 22.0374 49.9014 21.9192 49.9014 21.796V12.0889C49.9014 11.9656 49.9504 11.8475 50.0375 11.7603C50.1246 11.6732 50.2428 11.6243 50.366 11.6243C50.4892 11.6243 50.6074 11.6732 50.6945 11.7603C50.7817 11.8475 50.8306 11.9656 50.8306 12.0889V21.796C50.8306 21.9192 50.7817 22.0374 50.6945 22.1245C50.6074 22.2117 50.4892 22.2606 50.366 22.2606Z" fill="#A6DAE9"/>
<path d="M37.991 25.5831C37.9095 25.5837 37.8293 25.5624 37.7588 25.5216C37.6882 25.4807 37.6299 25.4218 37.5898 25.3509L32.7327 16.9389C32.7024 16.8867 32.6828 16.8291 32.675 16.7693C32.6671 16.7095 32.6712 16.6488 32.6869 16.5905C32.7026 16.5323 32.7296 16.4778 32.7665 16.43C32.8033 16.3823 32.8492 16.3423 32.9016 16.3124C32.9535 16.2812 33.0112 16.2609 33.0712 16.2525C33.1312 16.2441 33.1923 16.2479 33.2508 16.2637C33.3092 16.2795 33.3639 16.3069 33.4116 16.3443C33.4593 16.3817 33.4989 16.4283 33.5281 16.4814L38.3852 24.8863C38.4165 24.9387 38.437 24.997 38.4455 25.0575C38.4539 25.118 38.4502 25.1796 38.4344 25.2387C38.4187 25.2977 38.3913 25.353 38.3538 25.4013C38.3163 25.4496 38.2695 25.4899 38.2163 25.5198C38.1483 25.561 38.0704 25.5829 37.991 25.5831Z" fill="#A6DAE9"/>
<path d="M28.9314 34.6427C28.8496 34.6434 28.7692 34.6215 28.6991 34.5794L20.252 29.7293C20.1951 29.7011 20.1446 29.6615 20.1036 29.613C20.0626 29.5644 20.0319 29.508 20.0136 29.4472C19.9953 29.3864 19.9896 29.3224 19.997 29.2593C20.0043 29.1962 20.0245 29.1353 20.0564 29.0803C20.0882 29.0253 20.131 28.9775 20.182 28.9397C20.2331 28.9019 20.2913 28.875 20.3532 28.8606C20.4151 28.8462 20.4793 28.8447 20.5418 28.856C20.6043 28.8674 20.6638 28.8915 20.7166 28.9268L29.1215 33.7839C29.1748 33.8138 29.2215 33.8541 29.259 33.9024C29.2965 33.9507 29.3239 34.006 29.3396 34.065C29.3554 34.1241 29.3591 34.1857 29.3507 34.2462C29.3422 34.3068 29.3217 34.365 29.2904 34.4175C29.2505 34.4865 29.193 34.5438 29.1238 34.5834C29.0545 34.623 28.976 34.6434 28.8962 34.6427H28.9314Z" fill="#A6DAE9"/>
<path d="M25.6159 47.0248H15.9017C15.7892 47.0109 15.6857 46.9563 15.6107 46.8714C15.5356 46.7865 15.4942 46.677 15.4942 46.5637C15.4942 46.4504 15.5356 46.341 15.6107 46.256C15.6857 46.1711 15.7892 46.1166 15.9017 46.1026H25.6159C25.6812 46.0946 25.7476 46.1004 25.8104 46.1199C25.8733 46.1394 25.9313 46.172 25.9807 46.2156C26.03 46.2592 26.0695 46.3128 26.0965 46.3728C26.1236 46.4328 26.1376 46.4979 26.1376 46.5637C26.1376 46.6295 26.1236 46.6946 26.0965 46.7546C26.0695 46.8146 26.03 46.8682 25.9807 46.9118C25.9313 46.9554 25.8733 46.988 25.8104 47.0075C25.7476 47.027 25.6812 47.0329 25.6159 47.0248Z" fill="#A6DAE9"/>
<path d="M20.5265 64.257C20.4239 64.2599 20.3232 64.2281 20.2408 64.1668C20.1584 64.1055 20.099 64.0182 20.0721 63.9191C20.0453 63.8199 20.0526 63.7147 20.0929 63.6202C20.1332 63.5257 20.2041 63.4475 20.2942 63.3982L28.7414 58.5411C28.8483 58.4816 28.9741 58.466 29.0923 58.4975C29.2105 58.529 29.3118 58.6052 29.3749 58.7101C29.4051 58.7622 29.4247 58.8199 29.4326 58.8797C29.4404 58.9395 29.4364 59.0002 29.4207 59.0584C29.405 59.1167 29.3779 59.1712 29.3411 59.2189C29.3042 59.2667 29.2583 59.3066 29.206 59.3366L20.794 64.1937C20.7233 64.2342 20.6433 64.256 20.5617 64.257H20.5265Z" fill="#A6DAE9"/>
<path d="M33.148 76.8714C33.0662 76.8721 32.9858 76.8502 32.9157 76.808C32.8633 76.7781 32.8174 76.7381 32.7806 76.6904C32.7437 76.6427 32.7167 76.5881 32.701 76.5299C32.6853 76.4717 32.6812 76.4109 32.6891 76.3512C32.6969 76.2914 32.7165 76.2337 32.7468 76.1815L37.6039 67.7344C37.6655 67.6289 37.7664 67.5522 37.8846 67.5212C38.0027 67.4902 38.1284 67.5074 38.2339 67.569C38.3393 67.6306 38.416 67.7316 38.4471 67.8497C38.4781 67.9679 38.4609 68.0935 38.3993 68.199L33.5633 76.6391C33.5238 76.709 33.4665 76.7673 33.3973 76.808C33.3281 76.8488 33.2494 76.8707 33.1691 76.8714H33.148Z" fill="#A6DAE9"/>
<path d="M67.6123 76.8643C67.5319 76.8636 67.4532 76.8418 67.384 76.801C67.3148 76.7602 67.2576 76.7019 67.2181 76.632L62.361 68.1849C62.3307 68.1327 62.3111 68.0751 62.3033 68.0153C62.2954 67.9555 62.2995 67.8947 62.3152 67.8365C62.3309 67.7783 62.3579 67.7238 62.3948 67.676C62.4316 67.6283 62.4775 67.5883 62.5299 67.5584C62.5821 67.5282 62.6397 67.5086 62.6995 67.5007C62.7593 67.4929 62.82 67.4969 62.8783 67.5126C62.9365 67.5283 62.991 67.5554 63.0388 67.5922C63.0865 67.6291 63.1265 67.675 63.1564 67.7273L68.0135 76.1745C68.056 76.2452 68.0789 76.3259 68.0799 76.4084C68.0808 76.4909 68.0598 76.5722 68.0189 76.6439C67.9781 76.7156 67.9189 76.7751 67.8474 76.8163C67.7759 76.8575 67.6948 76.8789 67.6123 76.8784V76.8643Z" fill="#A6DAE9"/>
<path d="M80.2267 64.2429C80.1451 64.242 80.0652 64.2202 79.9944 64.1796L71.5754 59.3295C71.4826 59.2624 71.4179 59.1633 71.3937 59.0514C71.3695 58.9394 71.3874 58.8225 71.4442 58.723C71.5009 58.6235 71.5924 58.5485 71.7011 58.5123C71.8097 58.4761 71.9279 58.4814 72.033 58.527L80.4801 63.3841C80.5702 63.4334 80.6411 63.5116 80.6814 63.6061C80.7217 63.7006 80.729 63.8059 80.7022 63.905C80.6754 64.0042 80.616 64.0914 80.5336 64.1527C80.4511 64.214 80.3505 64.2458 80.2478 64.2429H80.2267Z" fill="#A6DAE9"/>
<path d="M84.8444 47.0108H75.1302C75.0076 47.0089 74.8905 46.9594 74.8037 46.8727C74.717 46.7859 74.6675 46.6688 74.6656 46.5462C74.6675 46.4242 74.7173 46.3078 74.8042 46.2222C74.8911 46.1366 75.0082 46.0886 75.1302 46.0886H84.8444C84.9658 46.0886 85.0822 46.1368 85.168 46.2226C85.2538 46.3084 85.302 46.4248 85.302 46.5462C85.302 46.6682 85.254 46.7853 85.1684 46.8722C85.0828 46.9592 84.9664 47.0089 84.8444 47.0108Z" fill="#A6DAE9"/>
<path d="M71.8077 34.6287C71.7056 34.6299 71.6061 34.5969 71.5249 34.535C71.4437 34.4732 71.3856 34.3859 71.3597 34.2872C71.3338 34.1885 71.3417 34.084 71.382 33.9902C71.4224 33.8965 71.4929 33.8189 71.5824 33.7699L80.0225 28.9128C80.0747 28.8826 80.1324 28.863 80.1921 28.8551C80.2519 28.8472 80.3127 28.8513 80.3709 28.867C80.4291 28.8827 80.4837 28.9097 80.5314 28.9466C80.5791 28.9834 80.6191 29.0294 80.649 29.0817C80.7104 29.1882 80.727 29.3146 80.6954 29.4334C80.6637 29.5521 80.5863 29.6535 80.4801 29.7152L72.0329 34.5723C71.9607 34.6084 71.8813 34.6276 71.8006 34.6287H71.8077Z" fill="#A6DAE9"/>
<path d="M62.7481 25.5761C62.6664 25.5768 62.586 25.5549 62.5159 25.5128C62.4635 25.4828 62.4176 25.4429 62.3807 25.3951C62.3439 25.3474 62.3168 25.2929 62.3011 25.2346C62.2854 25.1764 62.2814 25.1157 62.2892 25.0559C62.2971 24.9961 62.3167 24.9385 62.3469 24.8863L67.204 16.4391C67.2339 16.3868 67.2739 16.3409 67.3216 16.304C67.3694 16.2672 67.4239 16.2401 67.4821 16.2244C67.5404 16.2087 67.6011 16.2047 67.6609 16.2125C67.7207 16.2204 67.7783 16.24 67.8305 16.2702C67.9367 16.332 68.0142 16.4333 68.0458 16.5521C68.0775 16.6708 68.0608 16.7972 67.9995 16.9037L63.1423 25.3509C63.1028 25.4208 63.0456 25.479 62.9764 25.5198C62.9072 25.5606 62.8285 25.5824 62.7481 25.5832V25.5761Z" fill="#A6DAE9"/>
<path d="M50.366 22.2606C50.2428 22.2606 50.1246 22.2117 50.0375 22.1245C49.9504 22.0374 49.9014 21.9192 49.9014 21.796V12.0889C49.9014 11.9656 49.9504 11.8475 50.0375 11.7603C50.1246 11.6732 50.2428 11.6243 50.366 11.6243C50.4892 11.6243 50.6074 11.6732 50.6945 11.7603C50.7817 11.8475 50.8306 11.9656 50.8306 12.0889V21.796C50.8306 21.9192 50.7817 22.0374 50.6945 22.1245C50.6074 22.2117 50.4892 22.2606 50.366 22.2606Z" fill="#A6DAE9"/>
</svg>
