<svg width="120" height="120" viewBox="0 0 120 120" fill="none" xmlns="http://www.w3.org/2000/svg">
<path d="M70.9877 108.751C97.9103 102.609 114.757 75.8055 108.616 48.8828C102.474 21.9601 75.6704 5.1136 48.7478 11.255C21.8251 17.3964 4.97857 44.2001 11.1199 71.1228C17.2613 98.0454 44.065 114.892 70.9877 108.751Z" fill="#A6DAE9"/>
<path d="M60.7701 109.958C73.8722 109.727 86.3596 104.36 95.543 95.0116C104.726 85.6636 109.871 73.0828 109.869 59.9787C109.869 59.8308 109.869 59.6901 109.869 59.5493L90.0887 39.7689C89.9554 39.5957 89.7836 39.4559 89.5868 39.3606C89.3901 39.2653 89.1739 39.2171 88.9554 39.2198H33.3521C33.1611 39.2189 32.9717 39.2557 32.795 39.3282C32.6183 39.4007 32.4576 39.5073 32.3222 39.6421C32.1868 39.7768 32.0793 39.937 32.006 40.1134C31.9327 40.2898 31.895 40.4789 31.895 40.6699V80.2799C31.8958 80.4835 31.9395 80.6846 32.0232 80.8702C32.1068 81.0557 32.2287 81.2216 32.3807 81.357L32.268 81.4766L60.7701 109.958Z" fill="#8FC4D7"/>
<path d="M54.3362 79.0481C53.7214 81.5775 53.1043 84.107 52.4849 86.6364H69.7944C69.175 84.1023 68.5579 81.5729 67.9431 79.0481H54.3362Z" fill="#D1ECFB"/>
<path d="M70.8644 86.4958H51.4008C51.143 86.5192 50.9047 86.643 50.7374 86.8406C50.5701 87.0381 50.4873 87.2936 50.5068 87.5517V87.9459H71.7584V87.5517C71.778 87.2936 71.6952 87.0381 71.5279 86.8406C71.3606 86.643 71.1223 86.5192 70.8644 86.4958Z" fill="white"/>
<path d="M31.895 76.0986V80.28C31.895 80.6664 32.0485 81.0371 32.3217 81.3103C32.595 81.5836 32.9656 81.7371 33.3521 81.7371H88.9624C89.3488 81.7371 89.7195 81.5836 89.9927 81.3103C90.266 81.0371 90.4195 80.6664 90.4195 80.28V76.0986H31.895Z" fill="white"/>
<path d="M90.3843 76.0988V40.7123C90.3843 40.5213 90.3466 40.3322 90.2733 40.1558C90.2 39.9794 90.0925 39.8192 89.9571 39.6844C89.8217 39.5497 89.661 39.443 89.4843 39.3706C89.3075 39.2981 89.1182 39.2613 88.9272 39.2622H33.3521C33.1611 39.2613 32.9717 39.2981 32.795 39.3706C32.6183 39.443 32.4576 39.5497 32.3222 39.6844C32.1868 39.8192 32.0793 39.9794 32.006 40.1558C31.9327 40.3322 31.895 40.5213 31.895 40.7123V76.0988H90.3843Z" fill="#0E303F"/>
<path d="M87.991 41.5359H34.2883V73.6843H87.991V41.5359Z" fill="#15B0BF"/>
<path d="M34.2883 73.6843L87.991 41.5359V73.6843H34.2883Z" fill="#1695A4"/>
<path d="M82.7467 58.1415L69.2031 56.4802L74.377 69.1017L76.0875 64.6528L80.7405 68.2006L83.5562 64.5121L78.9033 60.9643L82.7467 58.1415Z" fill="white"/>
<path d="M69.3439 56.4943L69.2031 56.4802L74.377 69.1017L76.0875 64.6528L80.7405 68.2006L82.1906 66.3L69.3439 56.4943Z" fill="#D1ECFB"/>
<path d="M50.1549 54.8965C53.3577 59.1694 53.8786 64.1813 51.3234 66.096C48.7681 68.0107 44.1011 66.096 40.9052 61.8302C37.7094 57.5644 37.1744 52.5384 39.7297 50.6237C42.2849 48.709 46.952 50.6237 50.1549 54.8965Z" fill="#FEC011"/>
<path d="M49.993 54.988C53.0973 59.1342 53.7731 63.8716 51.5064 65.5469C49.2398 67.2223 44.8754 65.2654 41.7711 61.1263C38.6667 56.9872 37.991 52.2497 40.2647 50.5674C42.5384 48.885 46.9168 50.8278 49.993 54.988Z" fill="#F6871F"/>
<path d="M49.1483 55.6425C51.5909 58.9088 52.1259 62.6396 50.3379 63.977C48.5499 65.3145 45.1218 63.7588 42.6721 60.4996C40.2225 57.2404 39.6945 53.5096 41.4825 52.1651C43.2705 50.8206 46.7056 52.3833 49.1483 55.6425Z" fill="#FEC011"/>
<path d="M48.2824 61.7104C48.0352 61.8376 47.7567 61.8913 47.48 61.8653C47.1643 61.8326 46.8569 61.7444 46.5719 61.6048L46.41 61.098C46.3996 61.0564 46.3996 61.0129 46.41 60.9713C46.4094 60.9548 46.4129 60.9385 46.4203 60.9237C46.4277 60.9089 46.4387 60.8963 46.4522 60.8868C46.4522 60.8868 46.5508 60.8868 46.6352 60.8868L46.952 60.9784C47.0843 61.008 47.2183 61.0291 47.3532 61.0417C47.4988 61.0478 47.6436 61.0189 47.7756 60.9572L45.9384 58.2964C45.7588 58.3236 45.5778 58.34 45.3963 58.3457C45.1997 58.3461 45.0045 58.3128 44.8191 58.2471C44.5954 58.1662 44.3862 58.0498 44.1996 57.9022C43.9353 57.6992 43.6987 57.4626 43.4957 57.1983C43.3248 56.9691 43.1808 56.7211 43.0663 56.4591C42.9578 56.2144 42.8821 55.9564 42.8411 55.6919C42.7948 55.4595 42.7948 55.2203 42.8411 54.9879C42.8955 54.7717 43.0253 54.582 43.2071 54.4529L42.7003 53.749C42.6606 53.6915 42.6319 53.627 42.6158 53.559C42.6021 53.5367 42.5948 53.5111 42.5948 53.485C42.5948 53.4589 42.6021 53.4333 42.6158 53.4111L42.7918 53.2844L43.4957 54.2699C43.7169 54.1731 43.9604 54.1391 44.1996 54.1714C44.4423 54.2117 44.6788 54.2827 44.9036 54.3825L45.0303 54.7908C45.0303 54.9175 45.0303 54.995 45.0303 55.0302C44.9847 55.0463 44.935 55.0463 44.8895 55.0302L44.6572 54.9879H44.3545C44.2458 54.9885 44.1383 55.01 44.0377 55.0513L45.7694 57.3954C45.9537 57.3682 46.1393 57.3517 46.3255 57.3461C46.5229 57.3355 46.7206 57.3593 46.9098 57.4165C47.13 57.4908 47.3368 57.6001 47.5222 57.7403C47.7744 57.9409 47.995 58.1782 48.1768 58.4442C48.3766 58.7038 48.5511 58.982 48.6977 59.2748C48.8263 59.5455 48.9186 59.8318 48.9723 60.1266C49.0222 60.3776 49.0222 60.6359 48.9723 60.8868C48.9223 61.1144 48.7893 61.3152 48.5992 61.45L49.2257 62.344C49.2663 62.4028 49.2928 62.4703 49.3031 62.5411C49.3114 62.5654 49.3125 62.5917 49.3063 62.6167C49.3 62.6416 49.2867 62.6643 49.2679 62.6819L49.0919 62.8156L48.2824 61.7104ZM43.904 56.7829C44.0008 56.923 44.1169 57.0486 44.2489 57.156C44.3564 57.2417 44.4748 57.3127 44.6009 57.3672C44.7182 57.414 44.8414 57.4448 44.9669 57.4587C45.0864 57.4693 45.2065 57.4693 45.3259 57.4587L43.7632 55.2061C43.6669 55.3058 43.5946 55.4262 43.552 55.5581C43.5238 55.688 43.5238 55.8224 43.552 55.9523C43.5681 56.0997 43.611 56.2428 43.6787 56.3747C43.7384 56.5121 43.814 56.6421 43.904 56.7618V56.7829ZM47.8038 58.8947C47.702 58.75 47.5785 58.6218 47.4377 58.5146C47.3311 58.4258 47.2096 58.3567 47.0787 58.3105C46.9607 58.2695 46.8374 58.2458 46.7127 58.2401C46.5884 58.2332 46.4639 58.2332 46.3396 58.2401L48.0713 60.732C48.1659 60.6268 48.2357 60.5017 48.2754 60.3659C48.3039 60.2171 48.3039 60.0642 48.2754 59.9154C48.2495 59.741 48.1948 59.5721 48.1135 59.4156C48.029 59.2293 47.9252 59.0524 47.8038 58.8877V58.8947Z" fill="#F6871F"/>
<path d="M57.6517 30.6672C61.1713 26.6759 66.852 25.9086 70.2731 28.9566C73.6942 32.0047 73.5886 37.7065 70.0408 41.6766C66.493 45.6468 60.8405 46.4352 57.4194 43.3872C53.9983 40.3392 54.0968 34.6373 57.6517 30.6672Z" fill="#FEC011"/>
<path d="M57.8207 30.8151C61.2558 26.9505 66.4438 25.9439 69.3862 28.5625C72.3286 31.1811 71.9415 36.4535 68.4993 40.3181C65.0571 44.1826 59.8832 45.1963 56.9337 42.5707C53.9843 39.945 54.3785 34.6796 57.8207 30.8151Z" fill="#F6871F"/>
<path d="M58.7428 31.519C61.4529 28.478 65.5357 27.6826 67.8587 29.7521C70.1816 31.8217 69.8648 35.9608 67.1547 39.0088C64.4446 42.0568 60.3689 42.8452 58.0459 40.7756C55.7229 38.7061 56.0327 34.567 58.7428 31.519Z" fill="#FEC011"/>
<path d="M66.127 32.2864C66.3691 32.5578 66.5471 32.8802 66.6479 33.2296C66.7478 33.5841 66.7812 33.954 66.7464 34.3207L66.2326 34.5319C66.1838 34.5421 66.1335 34.5421 66.0847 34.5319C66.0394 34.528 65.9969 34.5081 65.9651 34.4756C65.9383 34.4464 65.9182 34.4118 65.906 34.3742C65.8939 34.3365 65.89 34.2967 65.8947 34.2574C65.8947 34.1518 65.8947 34.0251 65.8947 33.8772C65.876 33.7174 65.843 33.5596 65.7961 33.4056C65.7376 33.2214 65.6417 33.0513 65.5146 32.9058L63.2409 35.2077C63.3503 35.414 63.4444 35.6281 63.5224 35.8482C63.6129 36.0723 63.6629 36.3106 63.6703 36.5522C63.6729 36.81 63.6251 37.0659 63.5295 37.3054C63.3972 37.624 63.2035 37.9134 62.9593 38.1571C62.7557 38.3806 62.5181 38.5707 62.2554 38.7203C62.0125 38.8668 61.7456 38.9693 61.467 39.0229C61.1953 39.0793 60.915 39.0793 60.6434 39.0229C60.3514 38.9545 60.0821 38.8114 59.862 38.6076L59.2426 39.2412C59.1897 39.2941 59.1243 39.3329 59.0525 39.3538C59.0208 39.3614 58.9878 39.3615 58.956 39.3541C58.9243 39.3468 58.8947 39.3322 58.8695 39.3116L58.6442 39.1074L59.4889 38.2486C59.3166 38.0123 59.1988 37.7406 59.144 37.4532C59.0781 37.1696 59.0544 36.8779 59.0736 36.5874L59.4889 36.4184C59.6156 36.3691 59.7072 36.3691 59.7705 36.4184C59.8091 36.4638 59.8314 36.5208 59.8339 36.5803C59.8339 36.6578 59.8339 36.7563 59.8902 36.8689C59.9159 36.9881 59.9488 37.1057 59.9887 37.2209C60.0385 37.3559 60.1098 37.4818 60.1999 37.594L62.2695 35.4822C62.1615 35.271 62.063 35.0528 61.9738 34.8275C61.8815 34.603 61.8245 34.3656 61.8049 34.1236C61.7858 33.8702 61.8218 33.6156 61.9105 33.3774C62.0213 33.079 62.1913 32.8061 62.4102 32.575C62.638 32.3038 62.9035 32.0667 63.1986 31.871C63.4678 31.7102 63.7633 31.5982 64.0715 31.5402C64.3618 31.4802 64.6612 31.4802 64.9514 31.5402C65.2553 31.6047 65.5369 31.748 65.768 31.9555L66.5282 31.1812C66.5815 31.1303 66.6469 31.0939 66.7183 31.0756C66.7478 31.0687 66.7785 31.0689 66.8079 31.0762C66.8373 31.0836 66.8645 31.0978 66.8872 31.1178L67.1195 31.322L66.127 32.2864ZM62.3117 37.7066C62.4276 37.5806 62.5205 37.4353 62.5862 37.2772C62.6441 37.1413 62.6752 36.9955 62.6777 36.8478C62.6787 36.7032 62.6622 36.559 62.6285 36.4184C62.5862 36.2721 62.5345 36.1286 62.4736 35.989L60.5519 37.9459C60.7 38.0522 60.8673 38.1287 61.0446 38.1712C61.2003 38.2027 61.3606 38.2027 61.5163 38.1712C61.6726 38.1482 61.8231 38.0956 61.9597 38.0163C62.0935 37.9335 62.2125 37.8288 62.3117 37.7066ZM63.0719 32.9832C62.9488 33.1103 62.8529 33.2612 62.7904 33.4267C62.7348 33.5653 62.7084 33.7139 62.7129 33.8632C62.7147 34.0119 62.7408 34.1593 62.7904 34.2996C62.8399 34.4509 62.8986 34.599 62.9663 34.7431L65.0781 32.589C64.9224 32.4779 64.7448 32.4012 64.5572 32.3638C64.3857 32.3251 64.2078 32.3251 64.0363 32.3638C63.8536 32.4022 63.6794 32.4738 63.5224 32.575C63.355 32.6907 63.2036 32.828 63.0719 32.9832Z" fill="#F6871F"/>
<path d="M68.6048 53.9813C68.562 53.9805 68.5197 53.9709 68.4807 53.9533C68.4417 53.9356 68.4066 53.9103 68.3776 53.8787C68.3487 53.8471 68.3264 53.81 68.3122 53.7695C68.2981 53.7291 68.2922 53.6862 68.2951 53.6434V49.5607C68.2951 49.4767 68.3285 49.3961 68.3879 49.3367C68.4473 49.2773 68.5278 49.2439 68.6118 49.2439C68.6959 49.2439 68.7764 49.2773 68.8358 49.3367C68.8952 49.3961 68.9286 49.4767 68.9286 49.5607V53.6434C68.9286 53.7275 68.8952 53.808 68.8358 53.8674C68.7764 53.9268 68.6959 53.9602 68.6118 53.9602L68.6048 53.9813Z" fill="#D1ECFB"/>
<path d="M66.5493 55.164C66.495 55.1631 66.4417 55.1486 66.3945 55.1218L62.8748 53.0733C62.8386 53.0523 62.8069 53.0242 62.7816 52.9908C62.7562 52.9574 62.7378 52.9192 62.7273 52.8786C62.7169 52.838 62.7145 52.7958 62.7205 52.7543C62.7265 52.7128 62.7407 52.6729 62.7622 52.6369C62.8047 52.5656 62.8736 52.5139 62.9539 52.4928C63.0342 52.4717 63.1195 52.483 63.1916 52.5243L66.7112 54.5797C66.7686 54.6161 66.8128 54.67 66.8373 54.7334C66.8617 54.7968 66.8651 54.8664 66.847 54.9319C66.8288 54.9974 66.7901 55.0553 66.7365 55.0971C66.6829 55.1389 66.6173 55.1624 66.5493 55.164Z" fill="#D1ECFB"/>
<path d="M62.9945 59.5845C62.9402 59.5844 62.887 59.57 62.84 59.5428C62.7931 59.5156 62.7541 59.4766 62.727 59.4296C62.7046 59.3945 62.6898 59.3551 62.6833 59.3139C62.6769 59.2727 62.679 59.2306 62.6896 59.1903C62.7002 59.15 62.7189 59.1123 62.7448 59.0796C62.7706 59.0469 62.8029 59.0199 62.8396 59.0002L66.3593 56.9448C66.4321 56.9028 66.5186 56.8914 66.5998 56.9132C66.681 56.935 66.7502 56.9881 66.7922 57.0609C66.8342 57.1337 66.8455 57.2202 66.8238 57.3014C66.802 57.3826 66.7488 57.4518 66.676 57.4938L63.1564 59.5422C63.1071 59.5703 63.0512 59.5848 62.9945 59.5845Z" fill="#D1ECFB"/>
<path d="M68.6048 62.7945C68.5632 62.7945 68.522 62.7863 68.4836 62.7704C68.4451 62.7545 68.4102 62.7311 68.3808 62.7017C68.3514 62.6723 68.3281 62.6374 68.3121 62.5989C68.2962 62.5605 68.288 62.5193 68.288 62.4777V58.402C68.288 58.318 68.3214 58.2374 68.3808 58.178C68.4402 58.1186 68.5208 58.0852 68.6048 58.0852C68.6888 58.0852 68.7694 58.1186 68.8288 58.178C68.8882 58.2374 68.9216 58.318 68.9216 58.402V62.5059C68.9216 62.5475 68.9134 62.5887 68.8974 62.6271C68.8815 62.6655 68.8582 62.7005 68.8288 62.7299C68.7994 62.7593 68.7644 62.7826 68.726 62.7985C68.6876 62.8145 68.6464 62.8226 68.6048 62.8226V62.7945Z" fill="#D1ECFB"/>
<path d="M70.6533 55.164C70.5982 55.1631 70.5443 55.1484 70.4964 55.1214C70.4484 55.0943 70.408 55.0558 70.3787 55.0091C70.3381 54.9362 70.3278 54.8502 70.3503 54.7698C70.3727 54.6894 70.4259 54.6211 70.4984 54.5797L74.0532 52.5243C74.1253 52.483 74.2107 52.4717 74.291 52.4928C74.3713 52.5139 74.4401 52.5656 74.4826 52.6369C74.5242 52.71 74.5357 52.7965 74.5147 52.8779C74.4937 52.9594 74.4418 53.0295 74.37 53.0733L70.8504 55.1218C70.801 55.1498 70.7452 55.1644 70.6885 55.164H70.6533Z" fill="#D1ECFB"/>
</svg>
