<svg width="100" height="100" viewBox="0 0 100 100" fill="none" xmlns="http://www.w3.org/2000/svg">
<path d="M50.26 99.8C40.4224 99.8 30.8057 96.8828 22.626 91.4173C14.4463 85.9518 8.071 78.1835 4.3063 69.0947C0.541602 60.0059 -0.443416 50.0049 1.47581 40.3563C3.39504 30.7077 8.13231 21.8448 15.0886 14.8886C22.0448 7.93233 30.9076 3.19506 40.5563 1.27583C50.2049 -0.643397 60.2059 0.34162 69.2947 4.10632C78.3835 7.87102 86.1518 14.2463 91.6173 22.426C97.0828 30.6057 100 40.2224 100 50.0601C100 63.2519 94.7596 75.9035 85.4315 85.2315C76.1035 94.5596 63.4519 99.8 50.26 99.8Z" fill="#2C5871"/>
<path d="M98.9772 60.2953L68.909 30.2342C64.2194 25.0894 57.6781 22.0182 50.7241 21.6963C43.7701 21.3744 36.9731 23.8282 31.8282 28.5178C26.6834 33.2074 23.6122 39.7487 23.2904 46.7027C22.9685 53.6567 25.4222 60.4538 30.1119 65.5986L24.045 77.1018L23.8979 77.256L46.2668 99.6249C47.5909 99.73 48.929 99.8001 50.2811 99.8001C61.697 99.797 72.7651 95.8704 81.6306 88.6782C90.4961 81.4861 96.6204 71.4654 98.9772 60.2953Z" fill="#0E303F"/>
<path d="M50.1269 22.3668C45.1157 22.3615 40.2078 23.7914 35.9837 26.4874C31.7595 29.1835 28.3959 33.0329 26.2905 37.5803C24.1852 42.1278 23.4262 47.1831 24.1034 52.1483C24.7806 57.1136 26.8656 61.781 30.1118 65.5986L23.9959 77.2069L35.1209 70.1522C38.5017 72.5086 42.3897 74.0359 46.4704 74.6106C50.5511 75.1852 54.7098 74.791 58.6098 73.4599C62.5099 72.1288 66.0417 69.8982 68.9196 66.9486C71.7974 63.999 73.9404 60.4132 75.175 56.4816C76.4097 52.5499 76.7014 48.3828 76.0264 44.3175C75.3515 40.2522 73.7289 36.4029 71.2899 33.0812C68.851 29.7595 65.6643 27.0586 61.9877 25.1972C58.3111 23.3359 54.2479 22.3662 50.1269 22.3668Z" fill="#FEC00F"/>
<path d="M50.1269 22.3668H49.8607V74.867H50.1269C57.0944 74.867 63.7766 72.0991 68.7034 67.1724C73.6302 62.2456 76.398 55.5634 76.398 48.5959C76.398 41.6283 73.6302 34.9462 68.7034 30.0194C63.7766 25.0926 57.0944 22.3248 50.1269 22.3248V22.3668Z" fill="#F99B1C"/>
<path d="M47.773 66.7545V62.5511C45.1469 62.4523 42.5711 61.8006 40.214 60.6385L41.545 55.4404C43.8071 56.683 46.3412 57.3472 48.922 57.3739C51.5 57.3739 53.2304 56.3511 53.2304 54.6207C53.2304 52.8903 51.8293 51.8605 48.4736 50.7536C43.7238 49.1493 40.4522 46.9355 40.4522 42.6271C40.4522 38.6689 43.2054 35.6214 47.9552 34.7177V30.5143H52.3617V34.4235C54.6055 34.4549 56.8177 34.9561 58.8559 35.8947L57.4968 40.9107C55.5214 39.884 53.327 39.3504 51.1007 39.3554C48.2144 39.3554 47.2756 40.6445 47.2756 41.8845C47.2756 43.2856 48.8309 44.2874 52.656 45.6605C57.9662 47.51 60.0679 49.955 60.0679 53.9972C60.0679 58.0395 57.2657 61.3321 52.1656 62.1728V66.7545H47.773Z" fill="white"/>
<path d="M52.656 45.6396C51.7036 45.3108 50.7683 44.9344 49.8537 44.5117V51.2581C52.2006 52.2039 53.2234 53.1917 53.2234 54.6208C53.2234 56.05 51.9064 57.1078 49.8537 57.325V66.7546H52.1586V62.1729C57.2657 61.3322 60.0679 57.9555 60.0679 53.9973C60.0679 50.0392 57.9662 47.5101 52.656 45.6396Z" fill="#D1ECFB"/>
<path d="M49.8607 30.4934V39.4326C50.2705 39.3644 50.6853 39.3316 51.1007 39.3345C53.3287 39.3359 55.5233 39.8768 57.4968 40.9108L58.8349 35.8947C56.8047 34.9518 54.5998 34.4435 52.3617 34.4025V30.4934H49.8607Z" fill="#D1ECFB"/>
</svg>
