<svg width="100" height="100" viewBox="0 0 100 100" fill="none" xmlns="http://www.w3.org/2000/svg">
<g clip-path="url(#clip0)">
<path d="M53.7886 99.8575C81.3256 97.7678 101.955 73.7522 99.8647 46.2171C97.7748 18.6821 73.7575 -1.94547 46.2205 0.144235C18.6836 2.23394 -1.94543 26.2495 0.144423 53.7846C2.23427 81.3197 26.2516 101.947 53.7886 99.8575Z" fill="#15B0BF"/>
<path d="M77.7543 34.4291L76.1563 32.8312C75.6846 32.3612 75.1005 32.0195 74.4597 31.8387L66.0823 23.4619L65.9697 23.5745H37.1066L26.7018 33.9434V77.1716L49.4474 99.9578H49.9824C62.1544 99.9556 73.9072 95.5122 83.0358 87.4613C92.1644 79.4104 98.0411 68.3053 99.5635 56.2298L77.7543 34.4291Z" fill="#1695A4"/>
<path d="M26.7018 77.2139V48.388V33.9434L37.0503 23.5886H65.9415V34.2813V48.388V77.2139H26.7018Z" fill="white"/>
<path d="M37.0503 33.9434H26.7018L37.0503 23.5886V33.9434Z" fill="#FEC00F"/>
<path d="M26.7018 33.9435H37.0503L26.7018 44.2983V33.9435Z" fill="#D1ECFB"/>
<path d="M41.4502 61.8472C42.5836 64.0013 41.4502 67.6969 38.6343 70.9209L39.0285 71.3151L39.0707 71.2728L45.5825 64.7615C45.4826 64.5739 45.4534 64.3566 45.5003 64.1493C45.5471 63.9419 45.6668 63.7583 45.8377 63.6318C46.0085 63.5053 46.2191 63.4444 46.4311 63.4601C46.6431 63.4759 46.8424 63.5672 46.9927 63.7175C47.143 63.8678 47.2343 64.0671 47.2501 64.279C47.2658 64.491 47.2049 64.7016 47.0784 64.8724C46.9519 65.0433 46.7682 65.163 46.5609 65.2098C46.3535 65.2566 46.1362 65.2274 45.9486 65.1275L39.4227 71.6389L39.3805 71.6811L39.7747 72.0753C42.9989 69.2596 46.6948 68.1404 48.849 69.2596C49.6622 67.8819 50.5801 66.5687 51.5945 65.3317C52.615 64.1231 53.7233 62.9914 54.9102 61.9458C52.5869 60.2326 50.5341 58.18 48.8208 55.8568C47.7592 57.0348 46.6083 58.1291 45.3784 59.1301C44.142 60.1371 42.8286 61.0456 41.4502 61.8472Z" fill="#0E303F"/>
<path d="M71.1017 44.8755C71.4858 44.5431 71.7973 44.1351 72.0167 43.677C72.236 43.2189 72.3586 42.7204 72.3767 42.2128C72.3949 41.7052 72.3081 41.1993 72.122 40.7267C71.9358 40.2541 71.6543 39.825 71.2948 39.466C70.9354 39.1071 70.5058 38.8261 70.0329 38.6406C69.56 38.4551 69.054 38.3691 68.5464 38.3879C68.0387 38.4067 67.5404 38.53 67.0826 38.7499C66.6247 38.9699 66.2171 39.2819 65.8852 39.6664C59.4438 45.8469 55.3256 49.6904 48.8983 55.8568L54.8891 61.8472C61.0419 55.4204 64.8785 51.3165 71.1017 44.8755Z" fill="#F99B1C"/>
<path d="M48.7638 55.7526L47.8528 56.6635L54.0553 62.8654L54.9662 61.9545L48.7638 55.7526Z" fill="#FEC00F"/>
<path d="M64.3787 53.8153L78.0992 40.1239C78.7983 39.4004 79.1813 38.4288 79.1642 37.423C79.147 36.4171 78.731 35.4592 78.0077 34.76L76.1281 32.8875C75.4288 32.165 74.4717 31.749 73.4663 31.7305C72.4609 31.712 71.4892 32.0926 70.7638 32.789L57.0222 46.4592L64.3787 53.8153Z" fill="#FEC00F"/>
<path d="M78.1415 40.8278L70.8131 33.4718C69.4614 32.1202 67.4058 31.9865 66.2302 33.162L58.3597 41.0319L57.0222 42.3976C58.1415 43.0241 59.5987 42.9889 60.2745 42.3131C60.4265 42.1615 60.5324 41.9699 60.5797 41.7606C60.6271 41.5512 60.614 41.3327 60.542 41.1305L67.3777 34.2954C67.7278 33.9914 68.1838 33.8379 68.6464 33.8683C69.1091 33.8986 69.5411 34.1102 69.8486 34.4573L77.1559 41.7922C77.2124 41.8801 77.2878 41.9543 77.3766 42.0095C77.4653 42.0646 77.5653 42.0993 77.6691 42.1111C77.7729 42.1228 77.8781 42.1113 77.9769 42.0773C78.0758 42.0433 78.1658 41.9878 78.2405 41.9147C78.3152 41.8416 78.3727 41.7528 78.4088 41.6547C78.4449 41.5567 78.4587 41.4518 78.4492 41.3477C78.4397 41.2437 78.4072 41.143 78.354 41.0531C78.3007 40.9631 78.2282 40.8862 78.1415 40.8278Z" fill="#F99B1C"/>
</g>
<defs>
<clipPath id="clip0">
<rect width="100" height="100" fill="white"/>
</clipPath>
</defs>
</svg>
