<svg width="100" height="100" viewBox="0 0 100 100" fill="none" xmlns="http://www.w3.org/2000/svg">
<path d="M50 100C77.6142 100 100 77.6142 100 50C100 22.3858 77.6142 0 50 0C22.3858 0 0 22.3858 0 50C0 77.6142 22.3858 100 50 100Z" fill="#FEC00F"/>
<path d="M72.6243 18.5836V18.5062L68.0558 23.0747L69.175 27.249L68.4711 27.9529C65.6122 25.2025 62.221 23.0661 58.5058 21.6749C54.7907 20.2837 50.8303 19.6672 46.8681 19.8633C42.9058 20.0593 39.0256 21.0639 35.466 22.815C31.9064 24.5662 28.7426 27.0271 26.1693 30.0462C23.5959 33.0654 21.6674 36.5791 20.5022 40.3712C19.337 44.1633 18.9599 48.1536 19.394 52.0968C19.8281 56.0401 21.0643 59.8528 23.0265 63.3006C24.9887 66.7485 27.6354 69.7584 30.8039 72.1455L57.6588 99.0003C69.4278 97.2139 80.1667 91.2683 87.9273 82.242C95.688 73.2157 99.9562 61.7067 99.9578 49.8028C99.9578 48.3246 99.8804 46.8604 99.7537 45.4103L72.7721 18.4358L72.6243 18.5836Z" fill="#F99B1C"/>
<path d="M77.432 48.9301C77.4334 54.683 75.7292 60.3072 72.5348 65.0917C69.3404 69.8763 64.7992 73.6063 59.4852 75.8105C54.1713 78.0146 48.3232 78.5938 42.6801 77.4748C37.0371 76.3559 31.8524 73.5891 27.7815 69.5241C23.7107 65.4591 20.9363 60.2785 19.8092 54.6371C18.6821 48.9957 19.2528 43.1467 21.4492 37.8296C23.6456 32.5124 27.3691 27.9658 32.149 24.7645C36.9289 21.5631 42.5506 19.8507 48.3035 19.8438C52.1267 19.8382 55.9135 20.5865 59.4473 22.0457C62.9811 23.5049 66.1926 25.6465 68.8979 28.348C71.6033 31.0495 73.7496 34.2578 75.2139 37.7895C76.6783 41.3211 77.432 45.1069 77.432 48.9301Z" fill="#174F78"/>
<path d="M69.8156 48.93C69.8225 53.1861 68.5668 57.3487 66.2073 60.891C63.8477 64.4333 60.4904 67.196 56.5602 68.8296C52.6301 70.4632 48.3036 70.8942 44.1283 70.0681C39.9531 69.2421 36.1167 67.196 33.1047 64.1889C30.0927 61.1818 28.0403 57.3488 27.2074 53.1749C26.3745 49.001 26.7985 44.6739 28.4256 40.741C30.0528 36.8082 32.81 33.4463 36.3484 31.081C39.8868 28.7157 44.0473 27.4531 48.3035 27.4531C54.0028 27.4531 59.4691 29.7147 63.5024 33.7414C67.5357 37.7681 69.8062 43.2307 69.8156 48.93Z" fill="white"/>
<path d="M62.2343 48.93C62.2357 51.6856 61.4198 54.3796 59.8899 56.6715C58.3601 58.9633 56.1849 60.7499 53.6395 61.8054C51.0941 62.8608 48.2929 63.1377 45.5901 62.601C42.8873 62.0643 40.4045 60.7381 38.4555 58.7901C36.5066 56.8421 35.1791 54.3599 34.641 51.6574C34.1029 48.9549 34.3784 46.1536 35.4325 43.6076C36.4867 41.0617 38.2723 38.8856 40.5633 37.3546C42.8544 35.8235 45.548 35.0063 48.3035 35.0063C51.997 35.0063 55.5393 36.4731 58.1516 39.0841C60.7639 41.6951 62.2324 45.2366 62.2343 48.93Z" fill="#174F78"/>
<path d="M54.653 48.9301C54.653 50.1831 54.2814 51.408 53.5853 52.4498C52.8891 53.4917 51.8997 54.3037 50.7421 54.7832C49.5844 55.2627 48.3106 55.3882 47.0817 55.1437C45.8527 54.8993 44.7239 54.2959 43.8379 53.4099C42.9518 52.5238 42.3485 51.395 42.104 50.1661C41.8596 48.9371 41.985 47.6633 42.4645 46.5056C42.944 45.348 43.756 44.3586 44.7979 43.6624C45.8397 42.9663 47.0646 42.5947 48.3176 42.5947C49.1496 42.5947 49.9734 42.7586 50.7421 43.077C51.5107 43.3954 52.2091 43.862 52.7974 44.4503C53.3857 45.0386 53.8523 45.737 54.1707 46.5056C54.4891 47.2743 54.653 48.0981 54.653 48.9301Z" fill="white"/>
<path d="M48.3035 19.8438V27.4532C51.1608 27.4015 53.9997 27.9196 56.6546 28.9773C59.3094 30.035 61.7268 31.6111 63.7658 33.6135C65.8047 35.6158 67.4242 38.0044 68.5297 40.6396C69.6353 43.2749 70.2047 46.104 70.2047 48.9617C70.2047 51.8195 69.6353 54.6486 68.5297 57.2838C67.4242 59.9191 65.8047 62.3076 63.7658 64.31C61.7268 66.3124 59.3094 67.8884 56.6546 68.9461C53.9997 70.0038 51.1608 70.5219 48.3035 70.4702V78.0445C56.0177 78.0445 63.4159 74.9801 68.8706 69.5253C74.3254 64.0706 77.3898 56.6724 77.3898 48.9582C77.3898 41.244 74.3254 33.8458 68.8706 28.3911C63.4159 22.9363 56.0177 19.8719 48.3035 19.8719V19.8438Z" fill="#103754"/>
<path d="M48.3035 42.5806C49.9838 42.5806 51.5952 43.248 52.7833 44.4361C53.9714 45.6243 54.6389 47.2357 54.6389 48.9159C54.6389 50.5962 53.9714 52.2076 52.7833 53.3957C51.5952 54.5838 49.9838 55.2513 48.3035 55.2513" fill="white"/>
<path d="M48.3035 35.0064V42.5807C49.9838 42.5807 51.5952 43.2482 52.7833 44.4363C53.9714 45.6244 54.6389 47.2358 54.6389 48.9161C54.6389 50.5963 53.9714 52.2077 52.7833 53.3958C51.5952 54.5839 49.9838 55.2514 48.3035 55.2514V62.8609C50.1588 62.9026 52.0037 62.5732 53.73 61.892C55.4562 61.2109 57.0289 60.1917 58.3558 58.8943C59.6827 57.5969 60.737 56.0474 61.4568 54.337C62.1766 52.6265 62.5474 50.7894 62.5474 48.9337C62.5474 47.0779 62.1766 45.2408 61.4568 43.5304C60.737 41.8199 59.6827 40.2704 58.3558 38.9731C57.0289 37.6757 55.4562 36.6565 53.73 35.9753C52.0037 35.2941 50.1588 34.9647 48.3035 35.0064Z" fill="#103754"/>
<path d="M54.653 48.9301C54.653 48.0981 54.4891 47.2743 54.1707 46.5056C53.8523 45.737 53.3857 45.0386 52.7974 44.4503C52.2091 43.862 51.5107 43.3954 50.7421 43.077C49.9734 42.7586 49.1496 42.5947 48.3176 42.5947V55.2654C49.1496 55.2654 49.9734 55.1016 50.7421 54.7832C51.5107 54.4648 52.2091 53.9981 52.7974 53.4099C53.3857 52.8216 53.8523 52.1232 54.1707 51.3545C54.4891 50.5859 54.653 49.7621 54.653 48.9301Z" fill="#D1ECFB"/>
<path d="M48.3035 27.4533V35.0065C50.1588 34.9647 52.0037 35.2941 53.73 35.9753C55.4562 36.6565 57.0289 37.6757 58.3558 38.9731C59.6827 40.2705 60.737 41.8199 61.4568 43.5304C62.1766 45.2408 62.5474 47.0779 62.5474 48.9337C62.5474 50.7894 62.1766 52.6265 61.4568 54.337C60.737 56.0475 59.6827 57.5969 58.3558 58.8943C57.0289 60.1917 55.4562 61.2109 53.73 61.892C52.0037 62.5732 50.1588 62.9026 48.3035 62.8609V70.4422C51.1608 70.4939 53.9997 69.9758 56.6546 68.9181C59.3094 67.8604 61.7268 66.2843 63.7658 64.2819C65.8047 62.2796 67.4242 59.891 68.5298 57.2558C69.6353 54.6205 70.2047 51.7914 70.2047 48.9337C70.2047 46.0759 69.6353 43.2468 68.5298 40.6116C67.4242 37.9763 65.8047 35.5878 63.7658 33.5854C61.7268 31.583 59.3094 30.007 56.6546 28.9493C53.9997 27.8916 51.1608 27.3735 48.3035 27.4252V27.4533Z" fill="#D1ECFB"/>
<path d="M74.56 29.6003L79.1285 25.0318L73.9828 23.6521L72.6031 18.5063L68.0346 23.0748L69.1539 27.2491L53.6323 42.7707L51.429 38.3782L50 43.721L48.564 49.0639L53.9138 47.6349L59.2567 46.2059L54.8642 44.0026L70.3858 28.481L74.56 29.6003Z" fill="#1695A4"/>
<path d="M73.9828 23.6521L72.6031 18.5063L68.0346 23.0748L69.1539 27.2491L53.6323 42.7707L51.429 38.3782L50 43.721L48.564 49.0639L73.9828 23.6521Z" fill="#15B0BF"/>
</svg>
