<svg width="99" height="109" viewBox="0 0 99 109" fill="none" xmlns="http://www.w3.org/2000/svg">
<g clip-path="url(#clip0)">
<path d="M53.0695 98.4682C80.3385 96.5074 100.848 72.9036 98.8792 45.7477C96.9102 18.5918 73.208 -1.83282 45.939 0.128031C18.67 2.08888 -1.83971 25.6927 0.129313 52.8486C2.09833 80.0045 25.8004 100.429 53.0695 98.4682Z" fill="#FEC00F"/>
<path d="M88.5111 58.4456C88.4281 58.3308 88.3373 58.2218 88.2393 58.1194C88.2393 58.0778 88.1626 58.0431 88.1277 58.0084C88.0929 57.9737 87.9187 57.8279 87.8072 57.7446L50.3677 20.4466V20.4119C50.2847 20.297 50.1939 20.188 50.0959 20.0857C50.0959 20.044 50.0192 20.0093 49.9843 19.9746C49.9495 19.9399 49.7753 19.7942 49.6638 19.7109C49.247 19.4266 48.7605 19.2605 48.2562 19.2302C47.752 19.2 47.2489 19.3067 46.8009 19.5391C46.3529 19.7715 45.9766 20.1207 45.7124 20.5495C45.4482 20.9782 45.306 21.4705 45.3009 21.9735C45.3042 22.4068 45.4092 22.8334 45.6077 23.2191C45.8062 23.6047 46.0925 23.9388 46.4439 24.1944H46.2139C45.9534 24.1954 45.7021 24.29 45.5062 24.4609C45.3102 24.6318 45.1829 24.8675 45.1476 25.1245C41.0217 26.1378 38.1782 28.8168 37.8855 29.8856C37.8665 29.9099 37.8529 29.9379 37.8457 29.9679C37.8385 29.9978 37.8378 30.0289 37.8437 30.0591C38.5269 32.7166 39.9328 35.1349 41.9068 37.0482C41.7753 37.1488 41.6686 37.278 41.5949 37.4259C41.5212 37.5739 41.4825 37.7367 41.4817 37.9019C41.4801 38.1177 41.5458 38.3287 41.6699 38.5057C41.3834 38.5121 41.1112 38.6316 40.9132 38.8379C40.7152 39.0442 40.6075 39.3204 40.614 39.6057C40.6205 39.8911 40.7405 40.1621 40.9477 40.3593C41.1548 40.5565 41.4322 40.6637 41.7187 40.6572H42.5132C43.3582 43.8001 43.7085 47.0546 43.5516 50.3045C43.4455 54.4868 42.2079 58.563 39.9693 62.1033H39.6836C39.534 62.0913 39.3835 62.1103 39.2416 62.1591C39.0997 62.2079 38.9695 62.2855 38.8592 62.3869C38.7489 62.4883 38.6609 62.6113 38.6007 62.7482C38.5405 62.8852 38.5094 63.033 38.5094 63.1825C38.5094 63.332 38.5405 63.4798 38.6007 63.6168C38.6609 63.7537 38.7489 63.8767 38.8592 63.9781C38.9695 64.0795 39.0997 64.1571 39.2416 64.2059C39.3835 64.2547 39.534 64.2737 39.6836 64.2617H40.1993C38.2922 65.2958 36.7058 66.8302 35.6124 68.6985C34.5189 70.5668 33.9601 72.6977 33.9966 74.8598C33.9966 75.1999 33.9966 75.5539 34.0454 75.8731H33.9478C33.6607 75.875 33.3859 75.9898 33.1835 76.1927C32.9811 76.3955 32.8675 76.6699 32.8676 76.9558C32.8678 77.1018 32.8982 77.2462 32.957 77.38C33.0157 77.5137 33.1015 77.6339 33.2091 77.7332L33.1672 77.7679L53.8802 98.395C63.2868 97.5606 72.2579 94.0664 79.7369 88.324C87.2158 82.5816 92.891 74.8302 96.0938 65.983L88.5111 58.4456Z" fill="#F99B1C"/>
<path d="M53.7757 40.1228H42.3668C43.3254 43.4279 43.7258 46.8687 43.5516 50.3045C43.3286 54.9754 42.0114 59.223 39.7742 62.3948H56.3613C54.1242 59.223 52.807 54.9754 52.5839 50.3045C52.4154 46.8684 52.8181 43.4282 53.7757 40.1228Z" fill="#2C5871"/>
<path d="M57.5392 63.1583C57.542 63.3019 57.5159 63.4446 57.4624 63.5779C57.4089 63.7113 57.3292 63.8327 57.2278 63.9349C57.1265 64.0371 57.0056 64.1181 56.8724 64.173C56.7391 64.228 56.5962 64.2558 56.4519 64.2548H39.6836C39.5397 64.2549 39.3971 64.2264 39.2643 64.1711C39.1315 64.1158 39.011 64.0348 38.9099 63.9328C38.8087 63.8308 38.7289 63.7098 38.6751 63.5769C38.6213 63.4439 38.5946 63.3016 38.5964 63.1583C38.5982 62.8723 38.7136 62.5987 38.9173 62.3971C39.121 62.1956 39.3965 62.0825 39.6836 62.0825H56.4519C56.5944 62.0816 56.7356 62.1087 56.8675 62.1624C56.9993 62.216 57.1193 62.2951 57.2203 62.3951C57.3214 62.4951 57.4016 62.614 57.4563 62.745C57.511 62.8759 57.5392 63.0164 57.5392 63.1583Z" fill="#2C5871"/>
<path d="M63.268 76.9489C63.2689 77.0905 63.2416 77.2308 63.1876 77.3617C63.1337 77.4926 63.0541 77.6116 62.9536 77.7117C62.8531 77.8117 62.7337 77.891 62.6022 77.9447C62.4707 77.9984 62.3298 78.0256 62.1877 78.0247H33.9478C33.6613 78.0247 33.3865 77.9114 33.184 77.7096C32.9814 77.5079 32.8676 77.2342 32.8676 76.9489C32.8675 76.663 32.9811 76.3886 33.1835 76.1858C33.3859 75.9829 33.6607 75.868 33.9478 75.8662H62.1877C62.3302 75.8662 62.4712 75.8943 62.6027 75.9488C62.7343 76.0033 62.8537 76.0831 62.9541 76.1838C63.0545 76.2844 63.1339 76.4038 63.1878 76.5351C63.2416 76.6664 63.2689 76.8071 63.268 76.9489Z" fill="#2C5871"/>
<path d="M55.5041 39.5607C55.5041 39.7025 55.4759 39.843 55.4212 39.9739C55.3665 40.1049 55.2863 40.2238 55.1852 40.3238C55.0842 40.4238 54.9643 40.5029 54.8324 40.5565C54.7005 40.6102 54.5593 40.6373 54.4169 40.6364H41.7187C41.5766 40.6374 41.4357 40.6102 41.3042 40.5564C41.1727 40.5027 41.0533 40.4235 40.9528 40.3234C40.8523 40.2233 40.7727 40.1044 40.7188 39.9734C40.6648 39.8425 40.6375 39.7022 40.6384 39.5607C40.6375 39.4191 40.6648 39.2788 40.7188 39.1479C40.7727 39.017 40.8523 38.898 40.9528 38.7979C41.0533 38.6978 41.1727 38.6186 41.3042 38.5649C41.4357 38.5112 41.5766 38.484 41.7187 38.4849H54.4169C54.5593 38.484 54.7005 38.5111 54.8324 38.5648C54.9643 38.6184 55.0842 38.6975 55.1852 38.7975C55.2863 38.8975 55.3665 39.0164 55.4212 39.1474C55.4759 39.2783 55.5041 39.4188 55.5041 39.5607Z" fill="#2C5871"/>
<path d="M51.0019 25.2703C51.0066 25.4141 50.9821 25.5574 50.9298 25.6916C50.8776 25.8257 50.7986 25.948 50.6977 26.0511C50.5969 26.1541 50.4761 26.2358 50.3428 26.2913C50.2094 26.3467 50.0662 26.3748 49.9217 26.3738H46.2139C45.9274 26.3738 45.6527 26.2605 45.4501 26.0587C45.2475 25.857 45.1337 25.5833 45.1337 25.298C45.1337 25.0127 45.2475 24.7391 45.4501 24.5373C45.6527 24.3356 45.9274 24.2223 46.2139 24.2223H49.9217C50.0638 24.2213 50.2047 24.2485 50.3361 24.3023C50.4676 24.356 50.5871 24.4352 50.6876 24.5353C50.7881 24.6354 50.8676 24.7543 50.9216 24.8853C50.9755 25.0162 51.0028 25.1565 51.0019 25.298V25.2703Z" fill="#2C5871"/>
<path d="M54.0266 35.9308C54.0249 36.212 53.9134 36.4815 53.7157 36.6823C53.518 36.8831 53.2496 36.9994 52.9673 37.0066H43.2102C42.9237 37.0066 42.6489 36.8932 42.4463 36.6915C42.2437 36.4897 42.1299 36.2161 42.1299 35.9308C42.129 35.7889 42.1562 35.6483 42.2101 35.517C42.264 35.3857 42.3434 35.2663 42.4438 35.1656C42.5442 35.065 42.6636 34.9851 42.7951 34.9306C42.9267 34.8761 43.0677 34.8481 43.2102 34.8481H52.9673C53.1101 34.8481 53.2514 34.8761 53.3833 34.9305C53.5153 34.9849 53.6351 35.0647 53.7361 35.1652C53.837 35.2657 53.9171 35.3851 53.9718 35.5165C54.0264 35.6478 54.0545 35.7886 54.0545 35.9308H54.0266Z" fill="#2C5871"/>
<path d="M51.3155 63.1166C50.2102 63.1152 49.1124 63.2981 48.0678 63.658C47.0233 63.2975 45.9254 63.1145 44.8201 63.1166C38.8473 63.1166 33.9966 68.3705 33.9966 74.8529C33.9972 75.4148 34.0368 75.976 34.1151 76.5325H62.0274C62.1034 75.9759 62.1407 75.4147 62.139 74.8529C62.139 68.3705 57.2952 63.1166 51.3155 63.1166Z" fill="#2C5871"/>
<path d="M50.8346 21.9735C50.8346 22.5226 50.6711 23.0593 50.3648 23.5159C50.0585 23.9724 49.6231 24.3282 49.1137 24.5384C48.6043 24.7485 48.0438 24.8035 47.503 24.6964C46.9622 24.5892 46.4655 24.3248 46.0756 23.9366C45.6857 23.5483 45.4202 23.0536 45.3127 22.5151C45.2051 21.9766 45.2603 21.4184 45.4713 20.9111C45.6823 20.4038 46.0396 19.9702 46.4981 19.6652C46.9565 19.3601 47.4955 19.1973 48.0468 19.1973C48.7862 19.1973 49.4953 19.4898 50.0181 20.0105C50.5409 20.5311 50.8346 21.2372 50.8346 21.9735Z" fill="#2C5871"/>
<path d="M49.6429 19.7109C49.0809 19.7638 48.5483 19.9853 48.1155 20.3461C47.6827 20.707 47.3701 21.1902 47.219 21.7318C47.0679 22.2734 47.0855 22.8479 47.2694 23.3794C47.4534 23.9108 47.7949 24.3741 48.249 24.7081C48.811 24.6552 49.3436 24.4337 49.7764 24.0729C50.2092 23.712 50.5218 23.2288 50.6729 22.6872C50.824 22.1456 50.8064 21.5711 50.6225 21.0396C50.4385 20.5082 50.097 20.0449 49.6429 19.7109Z" fill="#0E303F"/>
<path d="M58.2919 30.0592C58.3337 31.2321 53.7199 32.5161 48.0887 32.6965C42.4435 32.5161 37.8298 31.2182 37.8646 30.0592C37.8995 28.9001 42.1438 24.8608 48.0887 24.7289C53.9917 24.8608 58.2919 28.9487 58.2919 30.0592Z" fill="#2C5871"/>
<path d="M58.2918 30.0591C58.2918 30.6283 55.6086 39.3871 48.0678 39.7342C40.5269 39.3871 37.8437 30.6283 37.8437 30.0591C37.5719 29.3651 42.3947 27.8868 48.0678 27.4287C53.7408 27.8868 58.5427 29.372 58.2918 30.0591Z" fill="#2C5871"/>
<path d="M54.6538 37.9019C54.6548 38.0438 54.6275 38.1844 54.5736 38.3157C54.5197 38.447 54.4403 38.5664 54.3399 38.6671C54.2395 38.7677 54.1201 38.8476 53.9886 38.9021C53.8571 38.9566 53.716 38.9846 53.5736 38.9846H42.562C42.2748 38.9828 42.0001 38.8679 41.7977 38.6651C41.5953 38.4622 41.4817 38.1879 41.4817 37.9019C41.4817 37.6166 41.5955 37.343 41.7981 37.1412C42.0007 36.9395 42.2755 36.8261 42.562 36.8261H53.5736C53.7157 36.8252 53.8566 36.8524 53.9881 36.9061C54.1196 36.9599 54.239 37.0391 54.3395 37.1392C54.44 37.2392 54.5195 37.3582 54.5735 37.4891C54.6275 37.6201 54.6548 37.7604 54.6538 37.9019Z" fill="#0E303F"/>
<path d="M52.584 50.3045C52.4271 47.0546 52.7774 43.8002 53.6224 40.6572H48.0887V62.0963H56.1732C53.9305 58.5601 52.6903 54.4856 52.584 50.3045Z" fill="#0E303F"/>
<path d="M51.3155 63.1166C52.9253 63.1204 54.5103 63.5108 55.9362 64.2548H56.452C56.7244 64.233 56.9786 64.1099 57.1639 63.9099C57.3493 63.7099 57.4522 63.4477 57.4522 63.1756C57.4522 62.9034 57.3493 62.6412 57.1639 62.4412C56.9786 62.2412 56.7244 62.1181 56.452 62.0963H48.0887V63.651C49.1271 63.2958 50.2176 63.1152 51.3155 63.1166Z" fill="#0E303F"/>
<path d="M62.1878 75.8662H62.0972C62.0972 76.0883 62.0553 76.3104 62.0275 76.5603H48.0887V78.0525H62.1878C62.4602 78.0307 62.7144 77.9075 62.8997 77.7075C63.0851 77.5076 63.188 77.2454 63.188 76.9732C63.188 76.7011 63.0851 76.4389 62.8997 76.2389C62.7144 76.0389 62.4602 75.9157 62.1878 75.894V75.8662Z" fill="#0E303F"/>
<path d="M54.4169 40.6572C54.7034 40.6646 54.9811 40.5583 55.1889 40.3618C55.3967 40.1652 55.5176 39.8945 55.525 39.6092C55.5324 39.3239 55.4257 39.0473 55.2284 38.8404C55.031 38.6334 54.7592 38.513 54.4727 38.5057C54.3744 38.6535 54.2408 38.7746 54.0839 38.8582C53.9269 38.9418 53.7516 38.9852 53.5736 38.9846H51.3364C50.3083 39.428 49.2079 39.682 48.0887 39.7341V40.6642H54.4448L54.4169 40.6572Z" fill="#0E303F"/>
<path d="M50.988 25.1245C50.9541 24.8669 50.8272 24.6304 50.6309 24.4592C50.4347 24.2881 50.1825 24.1939 49.9217 24.1945H49.6986C49.2276 24.5338 48.6631 24.7204 48.0818 24.7289C49.0624 24.7506 50.0374 24.8834 50.988 25.1245Z" fill="#0E303F"/>
<path d="M51.3364 38.9846H53.5736C53.7515 38.9853 53.9269 38.9419 54.0838 38.8583C54.2408 38.7747 54.3744 38.6535 54.4726 38.5057C54.6249 38.2772 54.6844 37.9996 54.6391 37.7291C54.5938 37.4586 54.4472 37.2152 54.2287 37.0482C53.3835 37.8544 52.4051 38.5095 51.3364 38.9846Z" fill="#0E303F"/>
<path d="M62.0275 76.5325C62.0275 76.3104 62.0763 76.0883 62.0972 75.8384C62.0972 75.5053 62.139 75.1444 62.139 74.8251C62.1801 72.6621 61.6233 70.5294 60.5294 68.6602C59.4354 66.7911 57.8465 65.2575 55.9362 64.227C54.5103 63.4831 52.9253 63.0926 51.3155 63.0888C50.2102 63.0874 49.1124 63.2704 48.0678 63.6302V76.5117H62.0275V76.5325Z" fill="#0E303F"/>
<path d="M58.257 29.8856C57.9574 28.8168 55.1139 26.1378 50.988 25.1245C50.0397 24.8839 49.067 24.7512 48.0887 24.7289V27.4287C53.3088 27.8521 57.804 29.15 58.257 29.8856Z" fill="#0E303F"/>
<path d="M51.3364 38.9846C52.4051 38.5094 53.3836 37.8544 54.2287 37.0482C56.2013 35.1338 57.607 32.7159 58.2919 30.0591C58.3044 30.0319 58.3109 30.0023 58.3109 29.9724C58.3109 29.9424 58.3044 29.9129 58.2919 29.8856C57.804 29.1499 53.3088 27.8521 48.0887 27.4287V39.7272C49.2075 39.6772 50.3079 39.4256 51.3364 38.9846Z" fill="#0E303F"/>
<path d="M55.5041 39.5607C55.5041 39.7025 55.4759 39.843 55.4212 39.9739C55.3665 40.1049 55.2863 40.2238 55.1852 40.3238C55.0842 40.4238 54.9643 40.5029 54.8324 40.5565C54.7005 40.6102 54.5593 40.6373 54.4169 40.6364H41.7187C41.5766 40.6374 41.4357 40.6102 41.3042 40.5564C41.1727 40.5027 41.0533 40.4235 40.9528 40.3234C40.8523 40.2233 40.7727 40.1044 40.7188 39.9734C40.6648 39.8425 40.6375 39.7022 40.6384 39.5607C40.6375 39.4191 40.6648 39.2788 40.7188 39.1479C40.7727 39.017 40.8523 38.898 40.9528 38.7979C41.0533 38.6978 41.1727 38.6186 41.3042 38.5649C41.4357 38.5112 41.5766 38.484 41.7187 38.4849H54.4169C54.5593 38.484 54.7005 38.5111 54.8324 38.5648C54.9643 38.6184 55.0842 38.6975 55.1852 38.7975C55.2863 38.8975 55.3665 39.0164 55.4212 39.1474C55.4759 39.2783 55.5041 39.4188 55.5041 39.5607Z" fill="#2C5871"/>
<path d="M47.5172 40.1089C47.519 40.3029 47.5745 40.4926 47.6775 40.6572H54.4169C54.5611 40.6582 54.7041 40.6304 54.8374 40.5754C54.9706 40.5205 55.0915 40.4395 55.1928 40.3373C55.2941 40.2351 55.3739 40.1137 55.4274 39.9803C55.4808 39.847 55.5069 39.7042 55.5041 39.5606C55.5023 39.3667 55.4469 39.177 55.3438 39.0124H48.6045C48.4602 39.0114 48.3173 39.0392 48.184 39.0942C48.0508 39.1491 47.9299 39.2301 47.8286 39.3323C47.7272 39.4345 47.6475 39.5559 47.594 39.6892C47.5405 39.8226 47.5144 39.9653 47.5172 40.1089Z" fill="#0E303F"/>
<path d="M57.5392 63.1583C57.542 63.3019 57.5159 63.4446 57.4624 63.5779C57.4089 63.7113 57.3292 63.8327 57.2278 63.9349C57.1265 64.0371 57.0056 64.1181 56.8724 64.173C56.7391 64.228 56.5962 64.2558 56.4519 64.2548H39.6836C39.5397 64.2549 39.3971 64.2264 39.2643 64.1711C39.1315 64.1158 39.011 64.0348 38.9099 63.9328C38.8087 63.8308 38.7289 63.7098 38.6751 63.5769C38.6213 63.4439 38.5946 63.3016 38.5964 63.1583C38.5982 62.8723 38.7136 62.5987 38.9173 62.3971C39.121 62.1956 39.3965 62.0825 39.6836 62.0825H56.4519C56.5944 62.0816 56.7356 62.1087 56.8675 62.1624C56.9993 62.216 57.1193 62.2951 57.2203 62.3951C57.3214 62.4951 57.4016 62.614 57.4563 62.745C57.511 62.8759 57.5392 63.0164 57.5392 63.1583Z" fill="#2C5871"/>
<path d="M57.5392 63.1583C57.5365 62.9654 57.4836 62.7765 57.3859 62.61H48.6044C48.4121 62.6074 48.2226 62.6564 48.0558 62.7518C47.889 62.8472 47.751 62.9855 47.6562 63.1522C47.5615 63.319 47.5135 63.508 47.5172 63.6995C47.5209 63.891 47.5763 64.078 47.6775 64.241H56.452C56.595 64.2419 56.7368 64.2145 56.8691 64.1604C57.0014 64.1063 57.1217 64.0266 57.2228 63.9259C57.324 63.8252 57.404 63.7055 57.4583 63.5737C57.5126 63.4419 57.5401 63.3007 57.5392 63.1583Z" fill="#0E303F"/>
<path d="M57.5391 76.9489C57.5354 76.754 57.4827 76.5631 57.3858 76.3937H48.6044C48.3161 76.3937 48.0395 76.5077 47.8356 76.7108C47.6317 76.9138 47.5172 77.1892 47.5172 77.4764C47.519 77.6703 47.5744 77.8601 47.6775 78.0247H56.4519C56.5946 78.0265 56.7363 78 56.8685 77.9467C57.0008 77.8934 57.1211 77.8143 57.2224 77.7141C57.3236 77.614 57.4038 77.4947 57.4582 77.3633C57.5125 77.2319 57.5401 77.091 57.5391 76.9489Z" fill="#0E303F"/>
<path d="M46.43 37.6104C46.431 37.6583 46.4223 37.706 46.4045 37.7506C46.3867 37.7952 46.3601 37.8358 46.3264 37.8701C46.2926 37.9043 46.2524 37.9315 46.2079 37.9501C46.1635 37.9687 46.1158 37.9782 46.0676 37.9782H42.3251C42.2271 37.9782 42.1331 37.9395 42.0639 37.8705C41.9946 37.8015 41.9557 37.7079 41.9557 37.6104C41.9557 37.5624 41.9653 37.5149 41.9839 37.4706C42.0026 37.4264 42.0299 37.3863 42.0643 37.3527C42.0987 37.3191 42.1395 37.2926 42.1842 37.2749C42.229 37.2572 42.2769 37.2485 42.3251 37.2495H46.0676C46.1637 37.2495 46.2559 37.2875 46.3239 37.3552C46.3918 37.4228 46.43 37.5146 46.43 37.6104Z" fill="#2C5871"/>
</g>
<defs>
<clipPath id="clip0">
<rect width="99" height="109" fill="white"/>
</clipPath>
</defs>
</svg>
