<svg width="100" height="100" viewBox="0 0 100 100" fill="none" xmlns="http://www.w3.org/2000/svg">
<g clip-path="url(#clip0)">
<path d="M53.7983 99.8544C81.3349 97.7599 101.96 73.7407 99.8651 46.206C97.7704 18.6713 73.7495 -1.95202 46.2129 0.142491C18.6762 2.237 -1.94855 26.2562 0.146106 53.7909C2.24076 81.3256 26.2617 101.949 53.7983 99.8544Z" fill="#2C5871"/>
<path d="M67.6241 24.011C66.4898 22.9041 64.984 22.2592 63.4002 22.2019L59.6198 18.4218C59.5354 18.3092 59.4438 18.2036 59.3594 18.098C59.304 18.0402 59.2523 17.9791 59.2045 17.915L58.8595 17.556L58.7188 17.4081C58.592 17.2885 58.4583 17.1758 58.3245 17.0632L58.1908 16.9506C58.0429 16.8309 57.8951 16.7253 57.7402 16.6127L57.6276 16.5353C57.4657 16.4226 57.2967 16.3241 57.1278 16.2255L57.0222 16.1903C56.8462 16.0918 56.6561 16.0003 56.4731 15.9158H56.3956C56.1985 15.8245 55.9964 15.7446 55.7902 15.6765H55.7409C55.5297 15.6061 55.3115 15.5357 55.0933 15.4794C54.4416 15.316 53.7728 15.2309 53.101 15.226C50.9346 15.2278 48.8575 16.0897 47.3262 17.6221C45.795 19.1546 44.9349 21.2323 44.9349 23.3986C44.9349 23.6942 44.9349 23.9828 44.9841 24.2644C40.0835 24.5724 35.4843 26.7363 32.1231 30.3157C28.7619 33.8951 26.8912 38.6209 26.8919 43.5309V45.2485L20.9926 57.5602L20.9363 57.6165L27.5466 64.2264C27.5849 64.5232 27.6945 64.8064 27.8661 65.0516C28.0378 65.2968 28.2663 65.4967 28.5322 65.6342V66.2748C28.5308 67.2543 28.7242 68.2242 29.1013 69.1282C29.4784 70.0321 30.0316 70.8521 30.7286 71.5402L58.4301 99.2538C69.0473 97.4384 78.7948 92.2444 86.2225 84.4443C93.6502 76.6442 98.3613 66.6549 99.655 55.9623L67.6381 23.9969L67.6241 24.011Z" fill="#0E303F"/>
<path d="M46.1528 24.1377C41.0326 24.1396 36.1228 26.1747 32.503 29.7956C28.8832 33.4165 26.8497 38.3267 26.8497 43.4464V45.164L20.9504 57.6517H27.1172C27.2689 58.5606 27.4877 59.4571 27.7719 60.3337C27.4792 60.6666 27.3166 61.0941 27.3143 61.5374C27.3116 61.8013 27.364 62.0628 27.4682 62.3053C27.5725 62.5477 27.7263 62.7657 27.9198 62.9452C27.7582 63.1617 27.6459 63.4108 27.5908 63.6752C27.5357 63.9396 27.5392 64.2128 27.6009 64.4758C27.6626 64.7387 27.7811 64.9849 27.9481 65.1972C28.115 65.4095 28.3264 65.5827 28.5674 65.7046V66.3452C28.5674 68.313 29.3492 70.2001 30.7407 71.5915C32.1322 72.9829 34.0195 73.7646 35.9873 73.7646H65.4699V43.4957C65.4764 40.9553 64.9815 38.4386 64.0135 36.0898C63.0456 33.741 61.6236 31.6063 59.8291 29.808C58.0346 28.0097 55.9028 26.5832 53.556 25.6102C51.2092 24.6371 48.6934 24.1368 46.1528 24.1377Z" fill="#FEC00F"/>
<path d="M41.5665 57.9932C42.23 55.1819 40.4888 52.365 37.6773 51.7014C34.8658 51.0379 32.0487 52.779 31.3851 55.5903C30.7215 58.4016 32.4628 61.2186 35.2743 61.8821C38.0858 62.5456 40.9029 60.8045 41.5665 57.9932Z" fill="#F99B1C"/>
<path d="M33.4812 45.4244C33.4868 45.6444 33.4266 45.8611 33.3083 46.0467C33.19 46.2322 33.019 46.3783 32.8172 46.466C32.6153 46.5538 32.3919 46.5793 32.1755 46.5394C31.9591 46.4994 31.7595 46.3957 31.6024 46.2416C31.4453 46.0875 31.3377 45.89 31.2936 45.6744C31.2494 45.4589 31.2706 45.235 31.3544 45.0315C31.4383 44.8281 31.581 44.6543 31.7642 44.5324C31.9474 44.4105 32.1629 44.3461 32.383 44.3474C32.6701 44.3492 32.9452 44.4625 33.1502 44.6636C33.3552 44.8646 33.4739 45.1375 33.4812 45.4244Z" fill="#2C5871"/>
<path d="M63.1538 22.1879C62.4861 22.1843 61.8224 22.2914 61.1897 22.5046C60.995 20.4088 59.9984 18.4691 58.4079 17.0903C56.8174 15.7115 54.7559 15.0001 52.6534 15.1045C50.551 15.209 48.5702 16.1212 47.1241 17.6508C45.6781 19.1805 44.8787 21.2093 44.8926 23.3142C44.8925 23.8509 44.9467 24.3863 45.0546 24.9121H43.534C42.1953 24.9121 40.9114 25.4438 39.9648 26.3904C39.0182 27.3369 38.4865 28.6207 38.4865 29.9592C38.4865 31.2978 39.0182 32.5816 39.9648 33.5281C40.9114 34.4747 42.1953 35.0064 43.534 35.0064H63.71C64.415 35.0048 65.1119 34.8555 65.7558 34.5682C66.3996 34.2808 66.9761 33.8618 67.4481 33.3381C68.4056 32.4696 69.0779 31.3318 69.3766 30.0741C69.6754 28.8165 69.5867 27.4978 69.1221 26.2916C68.6575 25.0853 67.8389 24.0477 66.7736 23.3153C65.7084 22.5829 64.4466 22.1899 63.1538 22.1879Z" fill="#15B0BF"/>
<path d="M63.1538 22.1878C62.4861 22.1843 61.8224 22.2913 61.1897 22.5046C60.995 20.5851 60.1281 18.7961 58.7419 17.4539C57.3558 16.1117 55.5399 15.3026 53.6149 15.1697V35.0064H63.71C64.415 35.0048 65.1119 34.8555 65.7558 34.5681C66.3996 34.2808 66.9761 33.8618 67.4481 33.3381C68.4056 32.4696 69.0779 31.3317 69.3766 30.0741C69.6754 28.8164 69.5867 27.4978 69.1221 26.2915C68.6575 25.0852 67.8389 24.0477 66.7737 23.3153C65.7084 22.5829 64.4466 22.1898 63.1538 22.1878Z" fill="#1695A4"/>
<path d="M58.8807 30.5646L54.8258 36.3579H60.7814L54.8258 47.1773V40.4125H48.1169L52.0169 30.5646H58.8807Z" fill="white"/>
<path d="M58.8807 30.5646L54.8258 36.3579H60.7814L54.8258 47.1773L57.6135 38.6245H51.0876L54.6568 30.5646H58.8807Z" fill="#D1ECFB"/>
</g>
<defs>
<clipPath id="clip0">
<rect width="100" height="100" fill="white"/>
</clipPath>
</defs>
</svg>
