<svg width="18" height="18" viewBox="0 0 18 18" fill="none" xmlns="http://www.w3.org/2000/svg">
<path d="M14.9055 3.46456C14.9019 3.4602 14.8984 3.45662 14.8955 3.4539C13.4857 1.95642 11.5142 0.994423 9.3202 0.90868L9.31951 0.907991L9.27962 0.906932L9.12453 0.902817L9.12376 0.902794L9.12374 0.90279C9.08398 0.901429 9.04227 0.9 9 0.9C8.95773 0.9 8.91602 0.901428 8.87626 0.90279L8.87623 0.902794L8.87547 0.902817L8.72092 0.906932L8.68104 0.907995L8.68036 0.90868C6.487 0.994398 4.51597 1.95586 3.10625 3.4526C3.10516 3.45358 3.10396 3.45471 3.10269 3.45598L3.10265 3.45595L3.1024 3.45626C3.09995 3.45872 3.09723 3.46169 3.09445 3.46518C1.73512 4.9141 0.9 6.86076 0.9 9C0.9 11.0532 1.66943 12.9295 2.93284 14.3583C2.93497 14.3621 2.93754 14.3661 2.9406 14.3702C2.95084 14.384 2.96204 14.3931 2.96583 14.3961C4.38344 15.9795 6.41337 17.003 8.68006 17.0916L8.68074 17.0923L8.72065 17.0933L8.8759 17.0975C8.87592 17.0975 8.87594 17.0975 8.87596 17.0975C8.8826 17.0977 8.88932 17.0979 8.8961 17.098C8.92969 17.099 8.96481 17.1 9 17.1C9.04225 17.1 9.08394 17.0986 9.12369 17.0972L9.12377 17.0972L9.12453 17.0972L9.27908 17.0931L9.31893 17.092L9.31962 17.0913C11.5872 17.0025 13.6181 15.9785 15.0356 14.3937C15.0372 14.3925 15.0389 14.3911 15.0408 14.3896C15.0457 14.3854 15.0517 14.3796 15.0575 14.3721C15.0612 14.3675 15.0641 14.3631 15.0665 14.359C16.3303 12.9301 17.1 11.0536 17.1 9C17.1 6.86058 16.2647 4.91378 14.9055 3.46456ZM4.77288 9.37586C4.81288 10.4877 5.02958 11.569 5.40691 12.587C4.67691 12.8593 3.97715 13.2151 3.3178 13.6524C2.35206 12.475 1.74515 10.9937 1.66309 9.37586H4.77288ZM4.77288 8.62414H1.66309C1.74933 6.9243 2.41473 5.37542 3.46713 4.1714C4.10924 4.58136 4.78913 4.91496 5.49648 5.17089C5.06168 6.25841 4.81598 7.42439 4.77288 8.62414ZM14.5329 4.1714C15.5853 5.37542 16.2507 6.9243 16.3369 8.62414H13.2271C13.184 7.42439 12.9383 6.25841 12.5035 5.17089C13.2109 4.91496 13.8908 4.58136 14.5329 4.1714ZM8.62414 1.95268V5.02431C7.91107 4.99656 7.21041 4.89091 6.5308 4.70942C7.04805 3.68195 7.75369 2.74768 8.62414 1.95268ZM6.21545 5.4034C6.99558 5.62195 7.80274 5.74684 8.62414 5.77636V8.62414H5.52493C5.56844 7.50359 5.80404 6.4165 6.21545 5.4034ZM9.37586 8.62414V5.77636C10.1972 5.74686 11.0044 5.6222 11.7848 5.40342C12.1962 6.41652 12.4318 7.50359 12.4753 8.62414H9.37586ZM9.37586 5.02431V1.95268C10.2463 2.74768 10.9519 3.68194 11.4692 4.70941C10.7896 4.8909 10.0889 4.99656 9.37586 5.02431ZM12.1985 4.48216C11.7111 3.48378 11.0583 2.56625 10.2625 1.76256C11.6902 2.01075 12.9774 2.67221 13.997 3.61965C13.4256 3.9716 12.8237 4.25982 12.1985 4.48216ZM5.80147 4.48216C5.17633 4.25982 4.57438 3.9716 4.00322 3.61966C5.02255 2.67223 6.30997 2.01078 7.73773 1.76257C6.94165 2.56626 6.28894 3.48379 5.80147 4.48216ZM6.11963 12.3479C5.76773 11.4064 5.56478 10.4055 5.52491 9.37586H8.62414V11.948C7.76846 11.9787 6.92918 12.1124 6.11963 12.3479ZM8.62414 12.7001V16.0473C7.68534 15.1898 6.93888 14.1703 6.41292 13.047C7.12864 12.8457 7.86914 12.7294 8.62414 12.7001ZM9.37586 16.0473V12.7001C10.1308 12.7292 10.8713 12.8456 11.5871 13.0468C11.0611 14.1703 10.3147 15.1898 9.37586 16.0473ZM11.8801 12.3481C11.0708 12.1124 10.2315 11.9787 9.37586 11.948V9.37586H12.4751C12.4352 10.4055 12.2323 11.4064 11.8801 12.3481ZM13.2271 9.37586H16.3369C16.2549 10.9937 15.6482 12.475 14.6822 13.6524C14.0229 13.2151 13.3231 12.8593 12.5931 12.587C12.9707 11.569 13.1871 10.4877 13.2271 9.37586ZM7.73764 16.2374C6.22824 15.975 4.87557 15.251 3.83064 14.2154C4.42067 13.834 5.04453 13.522 5.69409 13.2816C6.19179 14.3705 6.88012 15.3707 7.73764 16.2374ZM10.2624 16.2374C11.1199 15.3709 11.8082 14.3707 12.3059 13.2816C12.9554 13.522 13.5791 13.834 14.1693 14.2154C13.1244 15.251 11.7718 15.975 10.2624 16.2374Z" fill="white" stroke="white" stroke-width="0.2"/>
</svg>
